<?xml version="1.0" encoding="UTF-8"?>
<svg version="1.1" viewBox="0 0 1600 1600" width="1280" height="1280" xmlns="http://www.w3.org/2000/svg">
<path transform="translate(945,695)" d="m0 0v2h7v2c1.49-0.495 1.49-0.495 3-1 1.56-0.0674 3.13-0.0851 4.69-0.0625 1.21 0.0135 1.21 0.0135 2.45 0.0273 0.922 0.0174 0.922 0.0174 1.86 0.0352v2h8v2c-1.48 0.0269-2.96 0.0463-4.44 0.0625-1.24 0.0174-1.24 0.0174-2.5 0.0352-2.07-0.0977-2.07-0.0977-3.07-1.1-2.15-0.105-4.31-0.139-6.46-0.145-0.675-0.00336-1.35-0.00672-2.05-0.0102-2.24-0.00954-4.49-0.0115-6.73-0.0125-1.56-0.00321-3.11-0.00658-4.67-0.0101-3.27-6e-3 -6.54-0.00784-9.81-0.00725-4.18 1.01e-4 -8.37-0.0135-12.6-0.0308-3.22-0.0111-6.43-0.0131-9.65-0.0126-1.54-0.00118-3.08-0.0056-4.63-0.0133-2.16-0.00982-4.32-0.00691-6.48-8.95e-4 -1.23-0.00143-2.46-0.00285-3.73-0.00432-3.21 0.244-5.35 0.943-8.25 2.25-2.19 0.32-4.39 0.562-6.59 0.746-1.28 0.115-2.56 0.231-3.88 0.35-2.66 0.227-5.31 0.449-7.97 0.672-7.41 0.671-14.5 1.71-21.7 3.58-3.87 0.877-7.7 1.15-11.7 1.35-2.52 0.181-2.52 0.181-5.24 2.31-1.68 0.459-3.38 0.845-5.09 1.18-1.51 0.306-1.51 0.306-3.05 0.618-1.07 0.21-2.14 0.42-3.24 0.636-2.18 0.442-4.36 0.884-6.55 1.33-1.57 0.318-1.57 0.318-3.18 0.643-9.44 1.89-9.44 1.89-18.7 4.52-4.72 1.57-9.52 2.83-14.3 4.13-9.9 2.71-19.5 6.18-29.2 9.59-1.37 0.481-2.73 0.96-4.1 1.44-7.57 2.64-15 5.42-22.3 8.84-2.93 1.36-5.91 2.52-8.94 3.64-8.46 3.22-16.4 6.92-24.4 11.2-5.43 2.93-10.9 5.7-16.5 8.42-4.28 2.11-8.42 4.39-12.5 6.79-0.831 0.481-1.66 0.962-2.52 1.46-5.07 3-9.91 6.19-14.7 9.62-2.1 1.45-4.2 2.84-6.35 4.2-0.62 0.391-1.24 0.782-1.88 1.18-1.21 0.76-2.43 1.51-3.65 2.26-3.81 2.39-6.77 5.08-9.91 8.28-1.64 1.21-3.3 2.38-5 3.5-3.75 2.56-6.87 5.2-10 8.5-1.08 0.881-2.16 1.76-3.25 2.62-3.98 3.37-7.11 7.3-10.3 11.4-1.66 2.07-3.33 4.1-5.06 6.1-4.64 5.38-8.52 10.4-11.3 16.9-0.832 1.56-1.67 3.13-2.5 4.69-6.86 14-9.47 29.8-4.88 45.1 1.75 4.44 4.08 8.03 7.2 11.6 1.17 1.62 1.17 1.62 1.17 4.62 0.88 0.396 0.88 0.396 1.78 0.801 2.3 1.24 3.89 2.6 5.79 4.39 10.2 9.1 23.6 16.7 37 20.1 2.48 0.703 2.48 0.703 6.14 2.15 4.7 1.79 9.47 2.71 14.4 3.61 9.34 1.74 9.34 1.74 13.2 2.99 5.79 1.47 11.6 1.72 17.6 2.07 0.68 0.042 1.36 0.0841 2.06 0.127 29.9 1.8 61.4 2.72 91.1-1.25 0.33-0.33 0.66-0.66 1-1 1.33-0.203 2.67-0.347 4.02-0.465 1.25-0.115 1.25-0.115 2.53-0.233 0.894-0.0792 1.79-0.158 2.71-0.24 13.2-0.172 13.2-0.172 24.8-4.06 1.33-0.261 2.67-0.467 4.02-0.648 0.832-0.117 1.66-0.233 2.52-0.353 0.895-0.123 1.79-0.246 2.71-0.373 8.04-1.16 15.9-2.63 23.8-4.62 1.14-0.275 2.29-0.549 3.47-0.832 20.7-5.03 41.6-10.6 61.5-18.2 1.65-0.623 3.3-1.24 4.95-1.87 12.2-4.63 24.4-9.4 36.3-14.9 2.95-1.32 5.92-2.54 8.91-3.75 4.41-1.82 8.54-3.87 12.7-6.25 2.32-1.31 4.68-2.51 7.08-3.68 7.93-3.92 15.6-8.27 23.3-12.6 1.24-0.687 2.51-1.34 3.78-1.98 0.66 0.33 1.32 0.66 2 1 0.33-0.66 0.66-1.32 1-2 1.31-1.03 2.64-2.04 4-3-0.724 3.62-1.73 5.12-4.81 7.26-0.722 0.471-1.44 0.941-2.19 1.43-3.4 2.24-6.74 4.53-10.1 6.88-6.81 4.78-13.8 8.96-21.1 12.8-3.45 2-6.59 4.27-9.81 6.62 1.31-0.0348 2.63-0.0696 3.98-0.105 1.74-0.0281 3.47-0.0554 5.21-0.082 0.864-0.0251 1.73-0.0503 2.62-0.0762 4.84-0.0557 8.33-0.0411 12.2 3.26v2h2c1.57 3.14 1.35 5.54 1 9-2.54 3.16-4.15 4.72-8 6-1.45 0.0525-2.9 0.0464-4.34 0.00244-1.31-0.034-1.31-0.034-2.65-0.0687-0.944-0.0271-1.89-0.0542-2.86-0.0822-2-0.037-4.01-0.0721-6.01-0.105-3.16-0.0554-6.31-0.121-9.47-0.219-3.05-0.0914-6.1-0.137-9.15-0.175-1.4-0.0589-1.4-0.0589-2.83-0.119-5.17-0.0218-8.15 0.624-12.2 4-2.69 2.67-4.86 5.33-6.53 8.77 0.731 0.00411 1.46 0.00822 2.22 0.0125 3.32 0.033 6.65 0.104 9.97 0.175 1.73 0.0087 1.73 0.0087 3.49 0.0176 8.58 0.224 8.58 0.224 12.5 3.22 0.903 1.27 0.903 1.27 1.82 2.57 0.66 0.66 1.32 1.32 2 2 0.438 2.81 0.438 2.81 0 6-2.46 3.35-3.98 4.79-8.08 5.63-4.54 0.431-9.02 0.507-13.6 0.513-1.86 0.0183-3.73 0.0379-5.59 0.0586-2.91 0.029-5.82 0.0508-8.74 0.0513-2.83 0.00334-5.66 0.0379-8.49 0.0776-0.866-0.00707-1.73-0.0141-2.62-0.0214-6.04 0.121-8.67 1.36-12.9 5.69-1.18 1.26-2.33 2.55-3.44 3.88-2.39 2.79-4.81 5.5-7.38 8.12-0.563 0.578-1.13 1.16-1.71 1.75-1.48 1.25-1.48 1.25-3.48 1.25-0.247 0.587-0.495 1.17-0.75 1.78-1.43 2.55-3 3.93-5.25 5.79-2.56 2.11-4.13 3.64-6 6.44h-2c-0.382 1.66-0.714 3.32-1 5 1.02 1.24 1.02 1.24 3.17 1.12 0.96-0.0049 1.92-0.00981 2.91-0.0149 1.08-0.00396 2.17-0.00792 3.29-0.012 4.98-0.0478 9.95-0.0978 14.9-0.166 2.63-0.0318 5.25-0.053 7.88-0.0635 3.78-0.0152 7.56-0.0626 11.3-0.117 1.76 0.00119 1.76 0.00119 3.56 0.00241 6.65 0.0804 6.65 0.0804 12.1-3.22 0.613-0.832 1.23-1.66 1.86-2.52 0.722-0.351 1.44-0.701 2.19-1.06 2.39-1.24 2.65-2.54 3.81-4.94 1.67-1.67 3.33-3.33 5-5 0.788-1.13 1.56-2.28 2.31-3.44 2.88-4.16 6.56-6.73 10.7-9.56 0.552-0.428 1.1-0.856 1.67-1.3 2.36-1.78 3.91-2.69 6.89-2.77 3.45 1.5 5.18 3.04 7.44 6.06 0.942 4.87 0.942 4.87 0 8-1.49 2.01-3.11 3.55-4.99 5.2-2.76 2.48-5 5.32-7.33 8.2-1.88 1.8-3.13 2.21-5.68 2.6v4c10.5 0.56 10.5 0.56 20.2-2.38 1.41-1.72 1.41-1.72 2.53-3.64 1.48-2.4 3.22-3.95 5.34-5.79 0.642-0.563 1.28-1.13 1.95-1.71 1.93-1.48 1.93-1.48 4.11-2.49 2.17-0.912 2.17-0.912 2.82-3.99 1.62-1.71 3.3-3.37 5-5 0.804-0.846 1.61-1.69 2.44-2.56 6.73-6.41 6.73-6.41 12.2-6.5 4.12 1.3 5.35 2.26 7.38 6.06 0.785 6.66 0.785 6.66-1.02 9.74-1.43 1.69-2.94 3.23-4.54 4.76-1.1 1.12-2.2 2.24-3.3 3.36-0.537 0.534-1.07 1.07-1.63 1.62-2.01 2.03-3.89 4.17-5.76 6.34-0.541 0.625-1.08 1.25-1.64 1.89-0.366 0.427-0.732 0.853-1.11 1.29 0.859-0.161 1.72-0.322 2.6-0.488 8.5-1.28 18.6-1.85 26.3 2.61 1.77 3.12 2.65 6.36 2.06 9.88-1.6 2.96-2.29 4.21-5 6-4.1 0.882-8.13 0.885-12.3 0.875-1.68 0.0309-1.68 0.0309-3.4 0.0625-2.76 0.047-5.52 0.0669-8.29 0.0625-0.219 2.09-0.219 2.09 1.33 3.52 0.609 0.586 1.22 1.17 1.85 1.78 0.663 0.648 1.33 1.3 2.01 1.96 1.41 1.35 2.81 2.71 4.22 4.06 6.75 6.59 6.75 6.59 8.6 10.7-0.0681 3.88-0.465 6.2-2.62 9.44-2.48 1.63-4.27 2.39-7.27 2.18-9.86-2.91-17.1-12.7-23.7-20.1-2.06-2.29-4.19-4.49-6.34-6.69-0.669-0.683-1.34-1.37-2.03-2.07-5.16-4.58-9.16-5.3-15.8-5.49-0.788-0.0342-1.58-0.0683-2.39-0.104-1.93-0.082-3.87-0.147-5.8-0.209 1.38 3.2 2.86 4.95 5.56 7.12 12.6 10.8 12.6 10.8 14.1 16.4 0.163 3.67-0.344 5.88-2.21 9.06-3.53 2.03-6.52 2.13-10.5 1.44-2.5-1.38-2.5-1.38-4-3v-2c-0.639-0.268-1.28-0.536-1.94-0.812-2.06-1.19-2.06-1.19-3.06-4.19-0.598-0.298-1.2-0.597-1.81-0.904-2.81-1.41-4.21-3.22-6.22-5.63-9.56-11.7-9.56-11.7-23-17.2-3.51 0.0143-6.98 0.232-10.5 0.536-4.45 0.282-8.86 0.269-13.3 0.236-0.863-0.00613-1.73-0.0123-2.61-0.0186-1.76-0.013-3.52-0.0265-5.28-0.0404-4.25-0.0245-8.5-0.00759-12.8 0.0121-0.765 0.00328-1.53 0.00656-2.32 0.00993-1.75 0.0078-3.5 0.0164-5.26 0.0252 0.495 0.619 0.99 1.24 1.5 1.88 1.5 2.12 1.5 2.12 1.5 4.12 0.541 0.213 1.08 0.425 1.64 0.645 3.21 1.85 5.57 4.39 8.11 7.04 3.36 3.43 6.69 6.79 10.4 9.88 4.25 3.59 7.78 7.76 11.4 12 5.14 5.05 9.98 5.92 16.9 6.14 0.736 0.0342 1.47 0.0683 2.23 0.104 1.8 0.0817 3.6 0.147 5.39 0.209v-2c4.04-0.0875 8.08-0.141 12.1-0.188 1.71-0.0377 1.71-0.0377 3.46-0.0762 10.7-0.0933 10.7-0.0933 15.4 3.26 2.35 2.84 3.77 4.96 4.56 8.56-0.876 3.79-2.44 5.15-5.56 7.44-6.18 1.41-12.8 1.13-19.1 1.06-0.866-0.00451-1.73-0.00902-2.62-0.0137-2.1-0.0116-4.21-0.0296-6.31-0.0488 0.887 1.26 1.79 2.5 2.69 3.75 0.499 0.696 0.998 1.39 1.51 2.11 3.72 4.48 3.72 4.48 9.04 6.52 2.81 0.162 5.6 0.199 8.42 0.193 1.54 0.0212 1.54 0.0212 3.12 0.0429 3.28 0.0419 6.56 0.0571 9.84 0.0704 3.29 0.0291 6.58 0.0636 9.86 0.102 2.04 0.0225 4.09 0.0383 6.13 0.0468 1.39 0.0106 1.39 0.0106 2.8 0.0213 0.813 0.00348 1.63 0.00696 2.46 0.0105 3.34 0.207 4.9 0.923 7.3 3.26 2.32 3.69 2.49 5.58 1.81 9.88-1.57 3.04-2.2 4.22-5 6-4.76 0.902-9.47 0.885-14.3 0.875-1.97 0.0309-1.97 0.0309-3.98 0.0625-3.24 0.0471-6.47 0.0669-9.71 0.0625 1.21 1.14 1.21 1.14 2.44 2.31 2.56 2.69 2.56 2.69 3.56 5.69 0.598 0.289 1.2 0.577 1.81 0.875 2.91 1.5 4.33 3.47 6.19 6.12v2h2c1.62 3.23 1.48 5.43 1 9-1.92 2.72-3.89 4.78-7 6-6.17-0.887-9.58-3.75-13.9-7.94-0.58-0.538-1.16-1.08-1.76-1.63-2.55-2.42-4.24-4.05-5.37-7.43h-3c-0.0251 0.63-0.0501 1.26-0.0759 1.91-0.117 2.88-0.239 5.77-0.362 8.65-0.0393 0.991-0.0786 1.98-0.119 3-0.614 14.2-0.614 14.2-2.73 17.3-3.3 2.1-6.96 1.7-10.7 1.09-2.87-1.79-4.49-2.98-6-6-0.0778-1.46-0.094-2.92-0.0784-4.38 0.00588-0.909 0.0118-1.82 0.0178-2.75 0.00838-0.986 0.0168-1.97 0.0254-2.99-0.00372-2.09-0.00965-4.18-0.0176-6.27-0.0105-3.29-0.00999-6.59 0.0286-9.88 0.683-14.4 0.683-14.4-4.72-27.1-2.82-2.87-5.46-4.31-9.25-5.62 0.33 0.99 0.66 1.98 1 3 0.0975 2.55 0.142 5.07 0.125 7.62-0.00411 0.718-0.00822 1.44-0.0125 2.17-0.136 12.9-0.136 12.9-2.18 17.7-3.04 2.35-6.2 2.81-9.94 2.5-3.8-1.97-5.63-3.44-8-7-0.18-2.04-0.18-2.04-0.0842-4.4 0.0292-0.888 0.0584-1.78 0.0885-2.69 0.0386-0.959 0.0771-1.92 0.117-2.91 0.0497-2.04 0.0971-4.08 0.143-6.12 0.08-3.21 0.173-6.42 0.305-9.63 1.14-13.9 1.14-13.9-4.44-26.1-1.68-1.44-3.39-2.84-5.13-4.19-1.77-1.74-3.52-3.5-5.25-5.28-2.69-2.65-5.38-5.29-8.08-7.92-0.862-0.851-1.72-1.7-2.61-2.58-0.781-0.764-1.56-1.53-2.37-2.31-1.69-1.9-1.69-1.9-1.69-3.9-0.835-0.309-0.835-0.309-1.69-0.625-2.26-1.34-3.31-2.43-4.94-4.44-2.05-2.95-2.05-2.95-4.38-3.94-0.116 7.48-0.205 15-0.259 22.4-0.0261 3.47-0.0614 6.94-0.118 10.4-0.0649 3.99-0.089 7.99-0.111 12-0.0258 1.24-0.0516 2.49-0.0782 3.77-0.213 5.88-0.213 5.88 1.71 11.3 1.49 1.51 1.49 1.51 3.85 3.15v2h2v2c0.837 0.349 0.837 0.349 1.69 0.705 2.91 1.63 4.91 3.65 7.26 6.01 0.93 0.932 1.86 1.86 2.82 2.82 0.479 0.485 0.958 0.97 1.45 1.47 1.47 1.49 2.95 2.97 4.42 4.44 8.26 8.31 8.26 8.31 8.67 13.4-0.0542 2.99-0.214 3.97-1.88 6.56-3.52 2.25-5.2 2.84-9.44 2.56-6.92-4.1-12.5-10.3-18-16.1-1.81-2.13-1.81-2.13-4.03-1.91-0.0814 2.4-0.141 4.79-0.188 7.19-0.0251 0.674-0.0503 1.35-0.0762 2.04-0.0775 5.3 1.03 8.28 4.56 12.2 1.57 1.62 3.18 3.2 4.8 4.77 0.588 0.58 1.18 1.16 1.78 1.76 1.87 1.85 3.75 3.68 5.62 5.52 2.47 2.42 4.94 4.85 7.41 7.28 0.849 0.824 0.849 0.824 1.71 1.66 3.8 3.75 6.97 7.11 7.88 12.6-0.688 4.13-2.21 5.49-5.5 8-2.94 1.06-2.94 1.06-6 1-5.66-2.99-5.66-2.99-7-7-0.572-0.286-1.14-0.572-1.73-0.867-3.11-1.55-5.1-3.78-7.52-6.26-0.892-0.91-1.78-1.82-2.7-2.76-1.01-1.05-1.01-1.05-2.05-2.12-1.01 3.02-1.07 4.91-1 8.06 0.0737 13.9 0.0737 13.9-2.62 19-3.22 2.63-5.23 3.01-9.38 2.94-4.04-2.06-6.36-3.78-8-8-0.227-2.47-0.227-2.47-0.195-5.2 0.00645-0.98 0.0129-1.96 0.0195-2.97 0.0168-1.02 0.0335-2.03 0.0508-3.08 0.00902-1.03 0.018-2.06 0.0273-3.12 0.0235-2.54 0.0564-5.08 0.0977-7.62-3.8 2.39-6.82 4.62-9.62 8.12-1.78 2.22-2.96 3.67-5.52 4.93-2.21 0.856-2.21 0.856-2.85 3.95-2.66 1.48-4.45 2.03-7.5 1.88-3.22-1.13-5.12-2.42-7.5-4.88-1.06-2.81-1.06-2.81-1-6 2.28-4.99 4.96-8.26 9-12 0.825-0.825 1.65-1.65 2.5-2.5l12.5-12.5c0.887-0.928 1.77-1.86 2.69-2.81 2.31-2.19 2.31-2.19 4.31-2.19 2.71-3.98 2.22-8.14 2.12-12.8-0.0135-1.19-0.0135-1.19-0.0273-2.4-0.0235-1.95-0.0594-3.9-0.0977-5.85-5.22 4.31-9.91 8.92-14.6 13.8-3.13 2.8-5.69 4.26-9.93 4.05-3.22-1.13-5.12-2.42-7.5-4.88-1.21-3.55-1.41-5.17 0.25-8.56 0.578-0.804 1.15-1.61 1.75-2.44 0.474-0.887 0.949-1.77 1.44-2.69 1.56-2.31 1.56-2.31 3.45-3.22 2.47-1.28 3.67-2.69 5.42-4.84 3.22-3.8 6.58-7.39 10.7-10.2h2c0.34-0.835 0.34-0.835 0.688-1.69 1.31-2.31 1.31-2.31 3.85-4.15 3.54-3.5 3.1-7.7 3.18-12.4-0.00393-1.22-0.00787-2.44-0.0119-3.7 0.0151-1.26 0.0302-2.52 0.0458-3.81 0.0357-3.33 0.05-6.66 0.054-10 0.00935-3.41 0.0468-6.81 0.0818-10.2 0.0629-6.67 0.0978-13.3 0.111-20-3.45 1.32-5.79 2.42-8.38 5.08-0.593 0.603-1.19 1.21-1.8 1.83-0.905 0.943-0.905 0.943-1.83 1.9-0.905 0.925-0.905 0.925-1.83 1.87-1.18 1.21-2.36 2.42-3.54 3.64-1.44 1.49-2.91 2.95-4.38 4.41-1.85 1.87-3.57 3.75-5.25 5.77-2.53 2.99-5.19 5.77-8 8.5-1.08 1.14-1.08 1.14-2.19 2.31-1.81 1.69-1.81 1.69-3.81 1.69-0.597 9.66-1.06 19.3-0.961 29 0.0059 0.675 0.0118 1.35 0.0179 2.05 0.0317 3.37 0.0817 6.74 0.156 10.1 0.0222 1.86 0.0222 1.86 0.0449 3.75 0.0221 1.11 0.0442 2.21 0.0669 3.36-0.325 2.76-0.325 2.76-1.61 4.58-3.04 2.1-6.13 2.58-9.72 2.18-3.09-1.39-5.11-3.19-7-6-0.855-4.32-0.663-8.49-0.438-12.9 0.0316-1.17 0.0632-2.33 0.0957-3.53 0.0823-2.87 0.197-5.73 0.342-8.59-4.57 0.777-4.57 0.777-7.69 4-2.31 3-2.31 3-4.31 4-1.54 4.85-1.15 10.1-1.18 15.2-0.0232 2.01-0.0473 4.02-0.0723 6.04-0.0352 3.16-0.0645 6.32-0.0779 9.48-0.0155 3.06-0.0557 6.11-0.0999 9.17 0.00191 0.943 0.00382 1.89 0.00578 2.86-0.0798 4.28-0.197 6.68-2.48 10.4-2.35 2.14-3.33 2.61-6.47 2.6-0.73 0.0245-1.46 0.049-2.21 0.0742-3.95-1.25-6.43-3.2-8.41-6.76-0.73-4.48-0.566-8.85-0.375-13.4 0.0406-1.82 0.0406-1.82 0.082-3.68 0.0705-2.98 0.169-5.97 0.293-8.95-3.27 1.54-5.12 3.02-7.44 5.81-0.606 0.71-1.21 1.42-1.84 2.15-0.57 0.672-1.14 1.34-1.73 2.04-3.39 3.81-5.86 6.16-11 7-4.1-1.48-7.49-3.39-10-7-0.279-4.83 1.1-7.49 4.12-11.1 2.91-3.11 6-5.85 9.39-8.42 1.9-1.95 2.53-3.99 3.48-6.52-0.792 0.0209-1.58 0.0419-2.4 0.0635-3.6 0.0833-7.19 0.135-10.8 0.187-1.25 0.0335-2.49 0.067-3.78 0.102-1.2 0.0129-2.4 0.0258-3.64 0.0391-1.1 0.0209-2.21 0.0419-3.35 0.0635-3.74-0.557-5.36-1.85-8.05-4.45-1.57-3.14-1.35-5.54-1-9 2.54-3.16 4.15-4.72 8-6 1.54-0.0754 3.09-0.0945 4.64-0.0784 1.41 0.00881 1.41 0.00881 2.84 0.0178 1.01 0.00838 2.02 0.0168 3.07 0.0254 2.15-0.00371 4.29-0.00964 6.44-0.0176 3.38-0.0106 6.76-0.0098 10.1 0.0286 3.27 0.0332 6.53 0.0155 9.79-0.011 1 0.0226 2.01 0.0451 3.04 0.0683 4.11-0.0699 6.91-0.12 10.2-2.77 1.76-2.01 3.31-4.08 4.86-6.26 0.979-1.02 1.97-2.03 3-3-1.04-1.27-1.04-1.27-3.33-1.07-1.01 0.0243-2.02 0.0487-3.06 0.0737-1.1 0.0168-2.2 0.0335-3.34 0.0508-2.33 0.044-4.66 0.096-6.99 0.156-1.11 0.0142-2.21 0.0284-3.36 0.043-1.01 0.0221-2.03 0.0442-3.08 0.0669-4.39-0.5-6.97-2.25-9.72-5.64-1.42-3.4-1.19-5.18-0.125-8.69 2.11-2.96 4.58-3.93 8-5 3.07-0.248 6.13-0.185 9.21-0.125 1.33 0.0114 1.33 0.0114 2.69 0.0229 3.78 0.0326 7.56 0.0888 11.3 0.143 2.76 0.0363 5.53 0.0604 8.29 0.084 0.845 0.0166 1.69 0.0332 2.56 0.0503 5.04 0.0414 9.17-0.405 13.9-2.18 2.37-2.29 2.37-2.29 4.19-5.06 3.38-4.8 3.38-4.8 5.99-5.64 0.602-0.0993 1.2-0.199 1.82-0.301 1.07-1.8 1.07-1.8 2-4 2.84-4.04 6.25-6.99 9.98-10.2 2.47-2.24 4.52-4.69 6.63-7.25 1.9-2.17 4.07-3.88 6.39-5.58-1.69-1.69-3.81-1.2-6.13-1.26-1.64-0.0435-1.64-0.0435-3.32-0.0878-5.04-0.0973-10.1-0.172-15.1-0.226-2.66-0.0311-5.31-0.0911-7.96-0.164-3.83-0.104-7.65-0.148-11.5-0.18-1.18-0.0433-2.36-0.0866-3.58-0.131-6.41-0.00687-6.41-0.00687-11.9 3-2.01 2.26-3.76 4.6-5.53 7.04-5.11 5-5.11 5-8 5-0.263 0.603-0.526 1.21-0.797 1.83-1.27 2.3-2.39 3.34-4.45 4.92-3.47 2.83-5.94 5.95-8.49 9.61-1.59 2.06-2.7 2.55-5.25 2.95-6.04 0.335-6.04 0.335-8.71-1.44-2.15-2.37-3.24-4.67-4.05-7.75 1.14-4.73 4.15-7.92 7.75-11.1h2c0.0825-0.619 0.165-1.24 0.25-1.88 0.75-2.12 0.75-2.12 2.69-3.19 1.02-0.464 1.02-0.464 2.06-0.938 0.66-0.99 1.32-1.98 2-3h2c-0.33-1.32-0.66-2.64-1-4h-17c-0.33 0.99-0.66 1.98-1 3-1.53 1.51-1.53 1.51-3.5 3.12-6.17 5.24-11.9 10.9-17.1 17.1-8.81 10.1-8.81 10.1-14.4 10.5-5.04-0.879-6.6-1.85-9.94-5.69-0.95-4.37 0.261-7.44 2.6-11.2 2.68-3.42 6.07-6.04 9.4-8.79 4.31-3.77 4.31-3.77 6-9-0.519 0.161-1.04 0.322-1.57 0.488-7.36 1.55-16.5 1.61-23.4-1.49-3.22-2.47-4.72-3.94-5.75-7.88 0.946-3.94 2.27-6.03 5.23-8.78 4.42-2.36 8.93-1.77 13.8-1.52 4.37 0.213 8.37-0.213 12.7-0.82-1.39-1.61-2.79-3.21-4.19-4.81-0.777-0.893-1.55-1.79-2.36-2.71-4.99-5.04-8.62-5.83-15.5-5.92-1.06-1.16e-4 -2.12-2.32e-4 -3.22-3.51e-4 -1.11-0.0132-2.22-0.0264-3.36-0.04-3.55-0.0409-7.1-0.0625-10.7-0.0811-28.7-0.196-28.7-0.196-42.7-2.44-2.33-0.334-4.67-0.667-7-1-33-5.22-70-15.8-92.3-42.6-2.23-3.2-4.14-6.51-6.01-9.93-0.507-0.925-0.507-0.925-1.02-1.87-3.76-7.21-5.04-14.1-4.98-22.2 0.00346-0.774 0.00693-1.55 0.0105-2.35 0.174-9.4 1.13-19 6.3-27.1 0.995-1.97 1.97-3.95 2.94-5.94 2.12-4.25 4.27-8.2 7.06-12.1 0.563-0.808 1.13-1.62 1.71-2.45 4.12-5.83 8.51-11.2 13.4-16.4 1.92-2.06 1.92-2.06 2.93-4.28 1.14-2.28 2.43-3.41 4.39-5.04 3.44-2.9 6.76-5.88 10.1-8.94 12-10.9 12-10.9 15.5-10.9 0.495-1.49 0.495-1.49 1-3 1.33-0.958 2.68-1.9 4.07-2.77 2.3-1.46 4.52-3.03 6.74-4.6 3.93-2.76 7.91-5.45 11.9-8.1 2.38-1.6 4.69-3.28 7.02-4.96 4.75-3.35 9.73-6.1 14.9-8.79 2.59-1.36 5.16-2.76 7.71-4.18 12.3-6.85 24.7-13.2 37.6-18.8 3.5-1.51 6.89-3.19 10.3-4.91 2.05-1.02 4.13-1.88 6.27-2.69 3.78-1.47 7.49-3.06 11.2-4.71 10.2-4.56 20.5-8.42 31.3-11.5 1.44-0.467 2.88-0.945 4.31-1.44 3.95-1.34 7.93-2.55 11.9-3.72 2.25-0.692 4.48-1.43 6.71-2.2 6.18-2.07 12.5-3.79 18.7-5.52 0.95-0.262 0.95-0.262 1.92-0.53 11-3.03 22-5.7 33.2-8.11 2.94-0.644 5.86-1.35 8.78-2.05 13-2.99 26.1-5.52 39.4-6.84 3.32-0.0761 3.32-0.0761 6.07-1.6 2.86-0.387 5.7-0.715 8.56-1 0.847-0.0869 1.69-0.174 2.57-0.263 7.95-0.791 15.9-1.32 23.9-1.74v-1c27.9-1.56 56.1-1.76 84 0zm-5 1 4 1zm-455 185 1 2zm429 58 1 2zm-45.4 4.98c-5.01 2.06-10 3.79-15.2 5.29-3.54 1.07-6.95 2.39-10.4 3.72-0.99 0.33-1.98 0.66-3 1-1.41 2.82-1.11 5.17-1.1 8.32 0.00322 1.26 0.00645 2.51 0.00977 3.81 0.00838 1.32 0.0168 2.64 0.0254 4 0.00502 1.34 0.00958 2.68 0.0137 4.02 0.0118 3.29 0.0283 6.57 0.0488 9.86 1.92 0.612 1.92 0.612 4 1 1.64-1.18 1.64-1.18 3-3 0.816-0.924 0.816-0.924 1.65-1.87 0.57-0.663 1.14-1.33 1.73-2.01 2.76-3.17 5.61-6.19 8.62-9.12 1.67-1.67 3.33-3.33 5-5 1.14-1.14 2.27-2.27 3.41-3.41 0.597-0.597 1.19-1.19 1.81-1.81l5.5-5.5c0.85-0.855 0.85-0.855 1.72-1.73 1.3-1.29 2.63-2.54 3.98-3.78 1.91-1.78 1.91-1.78 1.83-5.02-0.0825-0.908-0.165-1.82-0.25-2.75-4.21 0-8.52 2.39-12.4 3.98zm-104 8.02 4 1zm-81 3v1h5v-1h-5zm47 0v1h6v-1h-6zm84.4 6.31c-4.78 1.52-9.53 2.66-14.4 3.69v4c0.99 0.33 1.98 0.66 3 1v2c1.66 1.6 1.66 1.6 3.75 3.25 2.6 2.2 4.73 4.15 6.5 7.06 1.77 2.71 2.76 3.62 5.75 4.69 0.913-2.74 1.11-4.25 1.06-7.05-0.00773-0.78-0.0155-1.56-0.0234-2.36-0.0259-1.63-0.052-3.26-0.0781-4.89-0.04-4.04 0.0161-7.74 1.04-11.7-2.71-1.36-3.72-0.627-6.56 0.312zm-48.4 11.7c-2.25 0.471-2.25 0.471-4.7 0.781-1.35 0.18-1.35 0.18-2.72 0.363-1.4 0.176-1.4 0.176-2.82 0.355-6.39 0.818-12.5 1.83-18.8 3.5-1.66 0.383-3.33 0.76-5 1.12-0.763 0.168-1.53 0.335-2.31 0.508l-1.69 0.367c1.18 4.88 4.13 7.08 7.83 10.2 2.74 2.33 5.23 4.87 7.72 7.46 2.82 2.69 5.04 2.5 8.81 2.5 1.68-1.13e-4 1.68-1.13e-4 3.4-2.29e-4 1.21-0.00516 2.43-0.0103 3.68-0.0156 1.86-0.00212 1.86-0.00212 3.76-0.00429 3.3-0.00466 6.6-0.0136 9.89-0.0247 3.36-0.0102 6.73-0.0148 10.1-0.0198 6.6-0.011 13.2-0.0278 19.8-0.0488 0.34-3.17 0.34-3.17-2.2-5.37-1.39-1.3-1.39-1.3-2.8-2.63-1.62-1.69-3.23-3.38-4.84-5.08-1.38-1.42-2.75-2.85-4.13-4.27-0.943-0.978-1.88-1.96-2.81-2.95-1.36-1.44-2.74-2.86-4.12-4.28-0.811-0.848-1.62-1.7-2.46-2.57-4.64-3.25-8.92-2.52-13.6 0.152zm-80 12c1.12 3.37 2.09 4.19 4.75 6.44 1.08 0.915 1.08 0.915 2.18 1.85 5.99 5.26 5.99 5.26 13.4 7.03 0.851 0.0419 1.7 0.0838 2.58 0.127 0.889 0.0393 1.78 0.0786 2.7 0.119 0.897 0.0432 1.79 0.0864 2.72 0.131 2.22 0.106 4.44 0.208 6.66 0.307-3.63-5.2-7.38-9.48-12.3-13.6-1.73-1.45-1.73-1.45-3.73-3.45-2.69-0.172-5.26-0.232-7.94-0.188-0.729 6.45e-4 -1.46 0.00129-2.21 0.00195-3.2 0.0264-5.8 0.166-8.85 1.19zm118 14c0.33 0.99 0.66 1.98 1 3v-3h-1zm50 0c-0.33 0.66-0.66 1.32-1 2h2c-0.33-0.66-0.66-1.32-1-2zm-180 1-4 2h5c-0.33-0.66-0.66-1.32-1-2zm274 1v1h7v-1h-7zm-275 19 1 2zm240 41v1h11v-1h-11zm-212 49v1h10v-1h-10zm11 2 1 2z" fill="#007BC0"/>
<path transform="translate(800,517)" d="m0 0c0.808 0.299 1.62 0.598 2.45 0.906 5.82 2.21 11.2 4.93 16.6 8.09v2c0.516 0.227 1.03 0.454 1.56 0.688 6.9 3.71 11.5 8.31 16.4 14.3 0.663 0.776 1.33 1.55 2.01 2.35 4.88 5.84 8.56 11.9 12 18.6 0.369 0.654 0.737 1.31 1.12 1.98 5.2 9.44 7.57 20.3 7.88 31 0.0205 0.687 0.0409 1.37 0.062 2.08 0.432 16.7 0.432 16.7-2.06 24.9-0.338 1.39-0.671 2.79-1 4.19-1.51 5.77-3.49 11.1-6 16.5-1.17 2.73-2.09 5.52-3 8.34 1.37-0.273 1.37-0.273 2.77-0.551 14.6-2.79 29.4-4.38 44.2-5.72 0.907-0.0828 1.81-0.166 2.75-0.251 0.799-0.0688 1.6-0.138 2.42-0.208 1.84-0.0848 1.84-0.0848 2.83-1.27 1.41-0.157 2.83-0.249 4.24-0.313 0.908-0.0431 1.82-0.0863 2.75-0.131 0.997-0.0418 1.99-0.0836 3.02-0.127 1.03-0.0458 2.06-0.0917 3.12-0.139 3.37-0.146 6.74-0.282 10.1-0.416 1.14-0.0461 2.28-0.0923 3.45-0.14 17.5-0.693 34.8-0.82 52.3 0.265 1.43 0.0668 2.86 0.131 4.3 0.191 7.45 0.376 14.8 1.27 22.2 2.25 0.933 0.122 1.87 0.245 2.83 0.371 5.06 0.702 9.77 1.75 14.7 3.19 3.66 0.717 7.35 1.28 11 1.86 3.59 0.593 5.89 1.1 8.96 3.14 1.86 0.509 3.74 0.961 5.62 1.38 5.5 1.33 10.3 3.12 15.4 5.62 1.04 0.501 2.08 1 3.15 1.52 8.54 4.17 8.54 4.17 10.8 6.48 1.52 0.907 3.07 1.78 4.62 2.62 0.817 0.446 1.63 0.892 2.48 1.35 0.626 0.338 1.25 0.675 1.9 1.02v2c0.804 0.34 0.804 0.34 1.62 0.688 5.58 3.08 9.63 7.46 13.4 12.5 0.432 0.572 0.864 1.14 1.31 1.73 9.92 13.4 13.1 27.9 11.2 44.5-1.2 8.01-1.2 8.01-3.61 11.6-0.795 2.46-1.45 4.94-2.12 7.43-0.969 2.83-2.26 5.05-3.88 7.57-0.532 0.851-1.06 1.7-1.61 2.58-1.79 2.81-3.59 5.62-5.39 8.42-0.567 0.896-1.13 1.79-1.72 2.71-0.526 0.816-1.05 1.63-1.59 2.47-0.471 0.736-0.941 1.47-1.43 2.23-0.416 0.522-0.833 1.04-1.26 1.58h-2c-0.66 1.65-1.32 3.3-2 5h-2c-0.0619 0.557-0.124 1.11-0.188 1.69-1.16 3.31-3.26 4.93-5.81 7.31-1.06 1.1-2.13 2.21-3.19 3.31-2.81 2.69-2.81 2.69-4.81 2.69-0.247 0.593-0.495 1.19-0.75 1.8-1.44 2.54-2.9 3.74-5.25 5.45-0.701 0.521-1.4 1.04-2.12 1.58-1.88 1.17-1.88 1.17-3.88 1.17-0.247 0.639-0.495 1.28-0.75 1.94-1.25 2.06-1.25 2.06-3.31 2.62-0.639 0.144-1.28 0.289-1.94 0.438-0.33 0.99-0.66 1.98-1 3-1.32 0.951-2.66 1.89-4.04 2.75-3.36 2.15-6.55 4.53-9.79 6.86-2.17 1.39-2.17 1.39-4.17 1.39-0.33 0.99-0.66 1.98-1 3-2.33 1.72-2.33 1.72-5.25 3.5-0.954 0.588-1.91 1.18-2.89 1.78-1.42 0.851-1.42 0.851-2.86 1.72-1.26 0.758-1.26 0.758-2.55 1.53-0.81 0.485-1.62 0.969-2.45 1.47-0.825 0.495-1.65 0.99-2.5 1.5l-7.5 4.5c-0.844 0.51-1.69 1.02-2.56 1.55-2.15 1.28-4.31 2.5-6.5 3.7-3.69 2.03-7.32 4.16-10.9 6.31-4.08 2.39-8.12 4.51-12.5 6.35-2.66 1.15-5.28 2.37-7.9 3.61-21.1 9.97-21.1 9.97-28.6 10.5-0.33 0.99-0.66 1.98-1 3-2.07 0.844-2.07 0.844-4.69 1.5-4.08 1.11-7.56 2.54-11.3 4.5-1.99 0.693-3.99 1.36-6 2-1.86 0.697-3.72 1.39-5.57 2.09-8.7 3.25-17.4 6.29-26.3 9.09-0.784 0.25-1.57 0.5-2.38 0.757-4.2 1.32-8.4 2.51-12.7 3.55-3.93 0.956-7.84 1.98-11.8 3-1.24 0.319-1.24 0.319-2.51 0.645-3.25 0.849-6.38 1.68-9.49 2.95-3.79 1.48-7.75 1.74-11.8 2.24-2.76 0.513-5 1.13-7.61 2.06-6.07 2.11-12.3 3.15-18.6 4.29-1.2 0.225-2.39 0.45-3.63 0.682-8.98 1.64-8.98 1.64-12.8 1.57-3 0.0663-4.28 0.657-6.86 2.06-2.17 0.395-2.17 0.395-4.48 0.598-1.25 0.119-1.25 0.119-2.53 0.24-0.864 0.0741-1.73 0.148-2.62 0.225-1.72 0.154-3.44 0.311-5.16 0.473-0.76 0.0658-1.52 0.132-2.3 0.199-1.99 0.173-1.99 0.173-3.91 1.27-1.41 0.169-2.82 0.285-4.23 0.373-0.874 0.0568-1.75 0.114-2.65 0.172-0.946 0.0573-1.89 0.115-2.87 0.174-0.969 0.0628-1.94 0.126-2.94 0.19-4.16 0.269-8.32 0.528-12.5 0.789-3.03 0.191-6.06 0.387-9.09 0.583-0.946 0.0573-1.89 0.115-2.87 0.174-0.874 0.0568-1.75 0.114-2.65 0.172-1.16 0.0721-1.16 0.0721-2.34 0.146-1.98 0.129-1.98 0.129-3.9 1.23-1.53 0.0949-3.07 0.128-4.6 0.129-0.954 0.00315-1.91 0.0063-2.89 0.00955-1.03-0.00202-2.07-0.00405-3.13-0.00613-1.06 9.57e-4 -2.12 0.00191-3.21 0.0029-2.24 6.81e-4 -4.48-0.00117-6.72-0.00534-3.44-0.00535-6.87-5.34e-5 -10.3 0.00635-2.17-6.61e-4 -4.34-0.00194-6.52-0.00391-1.03 0.00202-2.07 0.00405-3.13 0.00613-0.954-0.00315-1.91-0.0063-2.89-0.00955-0.842-7.96e-4 -1.68-0.00159-2.55-0.00241-2.05-0.127-2.05-0.127-4.05-1.13-3.57-0.0592-7.13-0.0209-10.7 0.0391-0.745 0.00773-1.49 0.0155-2.26 0.0234-0.679 0.0116-1.36 0.0232-2.06 0.0352-2.12-0.104-3.94-0.553-5.98-1.1-1.22-0.165-2.43-0.33-3.69-0.5-3.31-0.5-3.31-0.5-4.31-1.5-0.66 0.165-1.32 0.33-2 0.5-0.66 0.165-1.32 0.33-2 0.5-0.33-0.33-0.66-0.66-1-1-1.52-0.186-3.04-0.324-4.56-0.438-4.67-0.416-8.93-1.31-13.4-2.56 3.49-2.12 3.49-2.12 5.88-1.57 0.699 0.189 1.4 0.377 2.12 0.571 1.37 0.109 2.75 0.175 4.13 0.205 0.806 0.0199 1.61 0.0399 2.44 0.0604 0.867 0.0167 1.73 0.0334 2.63 0.0506 1.36 0.0312 1.36 0.0312 2.75 0.063 1.93 0.0432 3.86 0.0843 5.79 0.123 2.89 0.0587 5.78 0.124 8.68 0.191 5.53 0.124 11.1 0.22 16.6 0.307 0.753 0.0137 1.51 0.0273 2.28 0.0414 11.3 0.191 22.5-0.422 33.8-1.27 2.87-0.214 5.74-0.417 8.61-0.619 1.83-0.133 3.66-0.266 5.49-0.4 0.855-0.0605 1.71-0.121 2.59-0.183 4.23-0.231 4.23-0.231 8.19-1.57 2.77-0.324 5.54-0.61 8.31-0.875 6.7-0.687 13.1-1.76 19.7-3.4 4.03-0.96 8.08-1.59 12.2-2.2 2.65-0.49 5.16-1.2 7.75-1.96 5.66-1.52 11.5-2.5 17.2-3.62 5.21-1.05 10.1-2.25 15-4.24 3.25-1.23 6.61-1.98 9.99-2.77 4.7-1.12 9.3-2.36 13.9-3.94 1.62-0.486 3.25-0.965 4.88-1.44 4.46-1.33 8.79-2.87 13.1-4.56 2.23-0.854 4.46-1.71 6.69-2.56 3.78-1.45 7.55-2.93 11.3-4.44 1.46-0.583 2.92-1.17 4.38-1.75 0.87-0.349 1.74-0.699 2.64-1.06 2.14-0.855 4.29-1.7 6.45-2.54 15.5-6.08 31.3-12.9 45.5-21.7 1.25-0.694 2.5-1.38 3.75-2.06 10.4-5.79 20.9-11.6 30.5-18.8 1.79-1.18 1.79-1.18 3.79-1.18v-2c2.18-1.71 4.35-3.31 6.62-4.88 0.617-0.434 1.23-0.869 1.87-1.32 2.89-2.03 5.8-4 8.78-5.91 2.39-1.66 3.96-3.06 5.73-5.33 2.73-3.34 5.54-5.97 9-8.56h2c0.268-0.639 0.536-1.28 0.812-1.94 1.19-2.06 1.19-2.06 4.19-3.06 1.01-1.77 1.01-1.77 2-4 2.61-4.22 5.45-7.55 9-11 0.33-0.66 0.66-1.32 1-2h2c0.309-0.949 0.619-1.9 0.938-2.88 1.06-3.12 1.06-3.12 2.06-5.12h2c0.433-1.67 0.433-1.67 0.875-3.38 1.12-3.62 1.12-3.62 3.12-5.62 0.586-1.79 1.1-3.61 1.56-5.44 0.744-2.9 1.49-5.73 2.44-8.56 1.42-17.3-0.00662-30-10.6-44-1.36-1.96-1.36-1.96-1.36-3.96-0.99-0.33-1.98-0.66-3-1-0.866-1.14-0.866-1.14-1.75-2.31-2.79-3.33-5.42-4.7-9.25-6.69v-2c-1.24-0.371-1.24-0.371-2.5-0.75-3.3-1.18-6.25-2.58-9.36-4.17-5.92-2.98-11.7-5.36-18.1-7.08-4.08-1.31-8.14-2.7-12.2-4.12-5.86-1.82-12.1-2.4-18.2-3.31-0.793-0.122-1.59-0.244-2.4-0.369-2.74-0.414-5.48-0.804-8.22-1.19-1.14-0.168-2.28-0.335-3.45-0.508-9.98-1.37-19.7-1.79-29.8-1.76-1.59-0.00135-3.19-0.0033-4.78-0.0058-3.31-0.00292-6.62 0.00124-9.92 0.0107-4.22 0.0115-8.44 0.00477-12.7-0.00714-3.28-0.00725-6.56-0.00492-9.84 2.56e-4 -1.56 0.00132-3.11-2.69e-4 -4.67-0.00496-7.57-0.0178-14.6 0.0396-21.9 2.27-1.97 0.294-3.96 0.546-5.94 0.746-1.07 0.114-2.14 0.227-3.25 0.344-1.11 0.114-2.23 0.229-3.37 0.347-8.62 0.93-17 2.06-25.5 4.01-2.95 0.551-2.95 0.551-6.09 0.547-2.78 0.00379-4.44 0.369-6.99 1.38-3.55 1.27-6.95 2.05-10.7 2.62-6.18 0.956-12.1 2.4-18.2 4-1.54 0.4-3.09 0.8-4.63 1.2-13.6 3.52-26.8 7.58-40.1 12-4.6 1.55-9.21 3.08-13.8 4.6-7.66 2.52-15 5.38-22.3 8.77-4.76 2.11-9.6 3.98-14.5 5.86-3.24 1.35-6.32 2.81-9.44 4.41-2.55 1.28-5.12 2.5-7.7 3.71-1.45 0.684-1.45 0.684-2.93 1.38-1.98 0.933-3.96 1.86-5.95 2.79-5.66 2.68-11.1 5.56-16.4 8.85-10.4 6.4-10.4 6.4-14.3 6.4-0.33 0.99-0.66 1.98-1 3-1.97 1.05-3.98 2.05-6 3-0.742 0.557-1.48 1.11-2.25 1.69-1.75 1.31-1.75 1.31-3.75 1.31l-1 2v-3c0.66-0.33 1.32-0.66 2-1 0.33-0.99 0.66-1.98 1-3 1.37-0.972 2.76-1.93 4.18-2.82 2.75-1.78 5.3-3.8 7.89-5.81 1.91-1.35 3.84-2.34 5.93-3.37l1.38-1.38c2.3-2.3 4.89-3.87 7.62-5.62 0.553-0.358 1.11-0.717 1.68-1.09 9.57-6.11 19.5-11.6 29.7-16.6 2.67-1.31 2.67-1.31 5.3-2.93 2.32-1.39 2.32-1.39 4.95-2.39 2.39-0.825 2.39-0.825 3.81-2.48 2.08-2.02 4.43-2.7 7.13-3.64 6.47-2.33 12.8-5.12 19.1-7.94 3.86-1.73 7.76-3.31 11.7-4.86 3.99-1.6 7.96-3.26 11.9-4.93 0.911-0.379 1.82-0.758 2.76-1.15 0.901-0.4 1.8-0.799 2.73-1.21 0.749-0.26 1.5-0.521 2.27-0.789 0.66 0.33 1.32 0.66 2 1v-2c-1.09-0.404-1.09-0.404-2.21-0.816-2.72-1.15-4.97-2.47-7.41-4.12-0.755-0.504-1.51-1.01-2.29-1.53-1.9-1.4-3.44-2.86-5.09-4.54-1.49-0.99-1.49-0.99-3-2v-2c-0.866-0.34-0.866-0.34-1.75-0.688-2.83-1.65-4.3-3.71-6.25-6.31-1.19-1.19-2.39-2.36-3.62-3.5-1.38-1.5-1.38-1.5-1.38-3.5h-2c-4.64-7.81-8.92-15.4-12-24-0.286-0.719-0.572-1.44-0.867-2.18-3.3-8.34-3.32-16.2-3.32-25-0.0122-1.17-0.0245-2.34-0.0371-3.54-0.0186-11.1 1.57-20.7 5.79-31 0.346-0.853 0.691-1.71 1.05-2.59 3.69-8.82 8.2-19.1 15.4-25.7 1.17-1.19 1.17-1.19 2.37-2.41 10.7-10.5 22.6-18.3 36.6-23.6 0.724-0.298 1.45-0.596 2.2-0.902 17.9-6.85 42.2-6.14 59.8 0.902zm-122 100 1 2zm1 6 1 2zm224 23v1h5v-1h-5z" fill="#F6842A"/>
<path transform="translate(951 966)" d="m0 0c3.45 1.5 5.18 3.04 7.44 6.06 0.942 4.87 0.942 4.87 0 8-1.49 2.01-3.11 3.55-4.99 5.2-2.76 2.48-5 5.32-7.33 8.2-1.88 1.8-3.13 2.21-5.68 2.6v4c10.5 0.56 10.5 0.56 20.2-2.38 1.41-1.72 1.41-1.72 2.53-3.64 1.48-2.4 3.22-3.95 5.34-5.79 0.642-0.563 1.28-1.13 1.95-1.71 1.93-1.48 1.93-1.48 4.11-2.49 2.17-0.912 2.17-0.912 2.82-3.99 1.62-1.71 3.3-3.37 5-5 0.804-0.846 1.61-1.69 2.44-2.56 6.73-6.41 6.73-6.41 12.2-6.5 4.12 1.3 5.35 2.26 7.38 6.06 0.785 6.66 0.785 6.66-1.02 9.74-1.43 1.69-2.94 3.23-4.54 4.76-1.1 1.12-2.2 2.24-3.3 3.36-0.537 0.534-1.07 1.07-1.63 1.62-2.01 2.03-3.89 4.17-5.76 6.34-0.541 0.625-1.08 1.25-1.64 1.89-0.549 0.64-0.549 0.64-1.11 1.29 0.859-0.161 1.72-0.322 2.6-0.488 8.5-1.28 18.6-1.85 26.3 2.61 1.77 3.12 2.65 6.36 2.06 9.88-1.6 2.96-2.29 4.21-5 6-4.1 0.882-8.13 0.885-12.3 0.875-1.12 0.0206-2.24 0.0412-3.4 0.0625-2.76 0.047-5.52 0.0669-8.29 0.0625-0.219 2.09-0.219 2.09 1.33 3.52 0.609 0.586 1.22 1.17 1.85 1.78 0.995 0.972 0.995 0.972 2.01 1.96 1.41 1.35 2.81 2.71 4.22 4.06 6.75 6.59 6.75 6.59 8.6 10.7-0.0681 3.88-0.465 6.2-2.62 9.44-2.48 1.63-4.27 2.39-7.27 2.18-9.86-2.91-17.1-12.7-23.7-20.1-2.06-2.29-4.19-4.49-6.34-6.69-0.669-0.683-1.34-1.37-2.03-2.07-5.16-4.58-9.16-5.3-15.8-5.49-1.18-0.0512-1.18-0.0512-2.39-0.104-1.93-0.082-3.87-0.147-5.8-0.209 1.38 3.2 2.86 4.95 5.56 7.12 12.6 10.8 12.6 10.8 14.1 16.4 0.163 3.67-0.344 5.88-2.21 9.06-3.53 2.03-6.52 2.13-10.5 1.44-2.5-1.38-2.5-1.38-4-3v-2c-0.639-0.268-1.28-0.536-1.94-0.812-2.06-1.19-2.06-1.19-3.06-4.19-0.598-0.298-1.2-0.597-1.81-0.904-2.81-1.41-4.21-3.22-6.22-5.63-9.56-11.7-9.56-11.7-23-17.2-3.51 0.0143-6.98 0.232-10.5 0.536-4.45 0.282-8.86 0.269-13.3 0.236-0.863-0.00613-1.73-0.0123-2.61-0.0186-1.76-0.013-3.52-0.0265-5.28-0.0404-4.25-0.0245-8.5-0.00759-12.8 0.0121-0.765 0.00328-1.53 0.00656-2.32 0.00993-1.75 0.0078-3.5 0.0164-5.26 0.0252 0.495 0.619 0.99 1.24 1.5 1.88 1.5 2.12 1.5 2.12 1.5 4.12 0.541 0.213 1.08 0.425 1.64 0.645 3.21 1.85 5.57 4.39 8.11 7.04 3.36 3.43 6.69 6.79 10.4 9.88 4.25 3.59 7.78 7.76 11.4 12 5.14 5.05 9.98 5.92 16.9 6.14 0.736 0.0342 1.47 0.0683 2.23 0.104 1.8 0.0817 3.6 0.147 5.39 0.209v-2c4.04-0.0875 8.08-0.141 12.1-0.188 1.14-0.0251 2.28-0.0503 3.46-0.0762 10.7-0.0933 10.7-0.0933 15.4 3.26 2.35 2.84 3.77 4.96 4.56 8.56-0.876 3.79-2.44 5.15-5.56 7.44-6.18 1.41-12.8 1.13-19.1 1.06-0.866-0.00451-1.73-0.00902-2.62-0.0137-2.1-0.0116-4.21-0.0296-6.31-0.0488 0.887 1.26 1.79 2.5 2.69 3.75 0.748 1.04 0.748 1.04 1.51 2.11 3.72 4.48 3.72 4.48 9.04 6.52 2.81 0.162 5.6 0.199 8.42 0.193 1.54 0.0212 1.54 0.0212 3.12 0.0429 3.28 0.0419 6.56 0.0571 9.84 0.0704 3.29 0.0291 6.58 0.0636 9.86 0.102 2.04 0.0225 4.09 0.0383 6.13 0.0468 0.925 0.00703 1.85 0.0141 2.8 0.0213 1.22 0.00522 1.22 0.00522 2.46 0.0105 3.34 0.207 4.9 0.923 7.3 3.26 2.32 3.69 2.49 5.58 1.81 9.88-1.57 3.04-2.2 4.22-5 6-4.76 0.902-9.47 0.885-14.3 0.875-1.97 0.0309-1.97 0.0309-3.98 0.0625-3.24 0.0471-6.47 0.0669-9.71 0.0625 1.21 1.14 1.21 1.14 2.44 2.31 2.56 2.69 2.56 2.69 3.56 5.69 0.598 0.289 1.2 0.577 1.81 0.875 2.91 1.5 4.33 3.47 6.19 6.12v2h2c1.62 3.23 1.48 5.43 1 9-1.92 2.72-3.89 4.78-7 6-6.17-0.887-9.58-3.75-13.9-7.94-0.87-0.807-0.87-0.807-1.76-1.63-2.55-2.42-4.24-4.05-5.37-7.43h-3c-0.0376 0.945-0.0376 0.945-0.0759 1.91-0.117 2.88-0.239 5.77-0.362 8.65-0.0393 0.991-0.0786 1.98-0.119 3-0.614 14.2-0.614 14.2-2.73 17.3-3.3 2.1-6.96 1.7-10.7 1.09-2.87-1.79-4.49-2.98-6-6-0.0778-1.46-0.094-2.92-0.0784-4.38 0.00588-0.909 0.0118-1.82 0.0178-2.75 0.00838-0.986 0.0168-1.97 0.0254-2.99-0.00372-2.09-0.00965-4.18-0.0176-6.27-0.0105-3.29-0.00999-6.59 0.0286-9.88 0.683-14.4 0.683-14.4-4.72-27.1-2.82-2.87-5.46-4.31-9.25-5.62 0.33 0.99 0.66 1.98 1 3 0.0975 2.55 0.142 5.07 0.125 7.62-0.00411 0.718-0.00822 1.44-0.0125 2.17-0.136 12.9-0.136 12.9-2.18 17.7-3.04 2.35-6.2 2.81-9.94 2.5-3.8-1.97-5.63-3.44-8-7-0.18-2.04-0.18-2.04-0.0842-4.4 0.0438-1.33 0.0438-1.33 0.0885-2.69 0.0386-0.959 0.0771-1.92 0.117-2.91 0.0497-2.04 0.0971-4.08 0.143-6.12 0.08-3.21 0.173-6.42 0.305-9.63 1.14-13.9 1.14-13.9-4.44-26.1-1.68-1.44-3.39-2.84-5.13-4.19-1.77-1.74-3.52-3.5-5.25-5.28-2.69-2.65-5.38-5.29-8.08-7.92-0.862-0.851-1.72-1.7-2.61-2.58-0.781-0.764-1.56-1.53-2.37-2.31-1.69-1.9-1.69-1.9-1.69-3.9-0.557-0.206-1.11-0.412-1.69-0.625-2.26-1.34-3.31-2.43-4.94-4.44-2.05-2.95-2.05-2.95-4.38-3.94-0.116 7.48-0.205 15-0.259 22.4-0.0261 3.47-0.0614 6.94-0.118 10.4-0.0649 3.99-0.089 7.99-0.111 12-0.0258 1.24-0.0516 2.49-0.0782 3.77-0.213 5.88-0.213 5.88 1.71 11.3 1.49 1.51 1.49 1.51 3.85 3.15v2h2v2c0.558 0.233 1.12 0.465 1.69 0.705 2.91 1.63 4.91 3.65 7.26 6.01 0.93 0.932 1.86 1.86 2.82 2.82 0.718 0.728 0.718 0.728 1.45 1.47 1.47 1.49 2.95 2.97 4.42 4.44 8.26 8.31 8.26 8.31 8.67 13.4-0.0542 2.99-0.214 3.97-1.88 6.56-3.52 2.25-5.2 2.84-9.44 2.56-6.92-4.1-12.5-10.3-18-16.1-1.81-2.13-1.81-2.13-4.03-1.91-0.0814 2.4-0.141 4.79-0.188 7.19-0.0251 0.674-0.0503 1.35-0.0762 2.04-0.0775 5.3 1.03 8.28 4.56 12.2 1.57 1.62 3.18 3.2 4.8 4.77 0.588 0.58 1.18 1.16 1.78 1.76 1.87 1.85 3.75 3.68 5.62 5.52 2.47 2.42 4.94 4.85 7.41 7.28 0.849 0.824 0.849 0.824 1.71 1.66 3.8 3.75 6.97 7.11 7.88 12.6-0.688 4.13-2.21 5.49-5.5 8-2.94 1.06-2.94 1.06-6 1-5.66-2.99-5.66-2.99-7-7-0.572-0.286-1.14-0.572-1.73-0.867-3.11-1.55-5.1-3.78-7.52-6.26-0.892-0.91-1.78-1.82-2.7-2.76-1.01-1.05-1.01-1.05-2.05-2.12-1.01 3.02-1.07 4.91-1 8.06 0.0737 13.9 0.0737 13.9-2.62 19-3.22 2.63-5.23 3.01-9.38 2.94-4.04-2.06-6.36-3.78-8-8-0.227-2.47-0.227-2.47-0.195-5.2 0.00967-1.47 0.00967-1.47 0.0195-2.97l0.0508-3.08c0.00902-1.03 0.018-2.06 0.0273-3.12 0.0235-2.54 0.0564-5.08 0.0977-7.62-3.8 2.39-6.82 4.62-9.62 8.12-1.78 2.22-2.96 3.67-5.52 4.93-2.21 0.856-2.21 0.856-2.85 3.95-2.66 1.48-4.45 2.03-7.5 1.88-3.22-1.13-5.12-2.42-7.5-4.88-1.06-2.81-1.06-2.81-1-6 2.28-4.99 4.96-8.26 9-12 0.825-0.825 1.65-1.65 2.5-2.5 4.17-4.17 8.33-8.33 12.5-12.5 1.33-1.39 1.33-1.39 2.69-2.81 2.31-2.19 2.31-2.19 4.31-2.19 2.71-3.98 2.22-8.14 2.12-12.8-0.00902-0.793-0.018-1.59-0.0273-2.4-0.0235-1.95-0.0594-3.9-0.0977-5.85-5.22 4.31-9.91 8.92-14.6 13.8-3.13 2.8-5.69 4.26-9.93 4.05-3.22-1.13-5.12-2.42-7.5-4.88-1.21-3.55-1.41-5.17 0.25-8.56 0.866-1.21 0.866-1.21 1.75-2.44 0.474-0.887 0.949-1.77 1.44-2.69 1.56-2.31 1.56-2.31 3.45-3.22 2.47-1.28 3.67-2.69 5.42-4.84 3.22-3.8 6.58-7.39 10.7-10.2h2c0.227-0.557 0.454-1.11 0.688-1.69 1.31-2.31 1.31-2.31 3.85-4.15 3.54-3.5 3.1-7.7 3.18-12.4-0.00393-1.22-0.00787-2.44-0.0119-3.7 0.0227-1.89 0.0227-1.89 0.0458-3.81 0.0357-3.33 0.05-6.66 0.054-10 0.00935-3.41 0.0468-6.81 0.0818-10.2 0.0629-6.67 0.0978-13.3 0.111-20-3.45 1.32-5.79 2.42-8.38 5.08-0.593 0.603-1.19 1.21-1.8 1.83-0.603 0.628-1.21 1.26-1.83 1.9-0.603 0.617-1.21 1.23-1.83 1.87-1.18 1.21-2.36 2.42-3.54 3.64-1.44 1.49-2.91 2.95-4.38 4.41-1.85 1.87-3.57 3.75-5.25 5.77-2.53 2.99-5.19 5.77-8 8.5-0.722 0.763-1.44 1.53-2.19 2.31-1.81 1.69-1.81 1.69-3.81 1.69-0.597 9.66-1.06 19.3-0.961 29 0.00885 1.01 0.00885 1.01 0.0179 2.05 0.0317 3.37 0.0817 6.74 0.156 10.1 0.0148 1.24 0.0296 2.48 0.0449 3.75 0.0221 1.11 0.0442 2.21 0.0669 3.36-0.325 2.76-0.325 2.76-1.61 4.58-3.04 2.1-6.13 2.58-9.72 2.18-3.09-1.39-5.11-3.19-7-6-0.855-4.32-0.663-8.49-0.438-12.9 0.0316-1.17 0.0632-2.33 0.0957-3.53 0.0823-2.87 0.197-5.73 0.342-8.59-4.57 0.777-4.57 0.777-7.69 4-2.31 3-2.31 3-4.31 4-1.54 4.85-1.15 10.1-1.18 15.2-0.0232 2.01-0.0473 4.02-0.0723 6.04-0.0352 3.16-0.0645 6.32-0.0779 9.48-0.0155 3.06-0.0557 6.11-0.0999 9.17 0.00191 0.943 0.00382 1.89 0.00578 2.86-0.0798 4.28-0.197 6.68-2.48 10.4-2.35 2.14-3.33 2.61-6.47 2.6-0.73 0.0245-1.46 0.049-2.21 0.0742-3.95-1.25-6.43-3.2-8.41-6.76-0.73-4.48-0.566-8.85-0.375-13.4 0.0406-1.82 0.0406-1.82 0.082-3.68 0.0705-2.98 0.169-5.97 0.293-8.95-3.27 1.54-5.12 3.02-7.44 5.81-0.606 0.71-1.21 1.42-1.84 2.15-0.57 0.672-1.14 1.34-1.73 2.04-3.39 3.81-5.86 6.16-11 7-4.1-1.48-7.49-3.39-10-7-0.279-4.83 1.1-7.49 4.12-11.1 2.91-3.11 6-5.85 9.39-8.42 1.9-1.95 2.53-3.99 3.48-6.52-0.792 0.0209-1.58 0.0419-2.4 0.0635-3.6 0.0833-7.19 0.135-10.8 0.187-1.25 0.0335-2.49 0.067-3.78 0.102-1.2 0.0129-2.4 0.0258-3.64 0.0391-1.1 0.0209-2.21 0.0419-3.35 0.0635-3.74-0.557-5.36-1.85-8.05-4.45-1.57-3.14-1.35-5.54-1-9 2.54-3.16 4.15-4.72 8-6 1.54-0.0754 3.09-0.0945 4.64-0.0784 0.938 0.00588 1.88 0.0118 2.84 0.0178 1.01 0.00838 2.02 0.0168 3.07 0.0254 2.15-0.00371 4.29-0.00964 6.44-0.0176 3.38-0.0106 6.76-0.0098 10.1 0.0286 3.27 0.0332 6.53 0.0155 9.79-0.011 1 0.0226 2.01 0.0451 3.04 0.0683 4.11-0.0699 6.91-0.12 10.2-2.77 1.76-2.01 3.31-4.08 4.86-6.26 0.979-1.02 1.97-2.03 3-3-1.04-1.27-1.04-1.27-3.33-1.07-1.01 0.0243-2.02 0.0487-3.06 0.0737-1.1 0.0168-2.2 0.0335-3.34 0.0508-2.33 0.044-4.66 0.096-6.99 0.156-1.11 0.0142-2.21 0.0284-3.36 0.043-1.01 0.0221-2.03 0.0442-3.08 0.0669-4.39-0.5-6.97-2.25-9.72-5.64-1.42-3.4-1.19-5.18-0.125-8.69 2.11-2.96 4.58-3.93 8-5 3.07-0.248 6.13-0.185 9.21-0.125 0.886 0.00757 1.77 0.0151 2.69 0.0229 3.78 0.0326 7.56 0.0888 11.3 0.143 2.76 0.0363 5.53 0.0604 8.29 0.084 0.845 0.0166 1.69 0.0332 2.56 0.0503 5.04 0.0414 9.17-0.405 13.9-2.18 2.37-2.29 2.37-2.29 4.19-5.06 3.38-4.8 3.38-4.8 5.99-5.64 0.903-0.149 0.903-0.149 1.82-0.301 1.07-1.8 1.07-1.8 2-4 2.84-4.04 6.25-6.99 9.98-10.2 2.47-2.24 4.52-4.69 6.63-7.25 1.9-2.17 4.07-3.88 6.39-5.58-0.33-0.66-0.66-1.32-1-2h2v-3c-1.32-0.66-2.64-1.32-4-2 0-4 0-4 2-6-1.48-0.495-1.48-0.495-3-1 0.667-1.33 1.33-2.67 2-4-2.31-0.33-4.62-0.66-7-1v-1c2.97-0.66 5.94-1.32 9-2 0.33 0.66 0.66 1.32 1 2 0.413-0.949 0.825-1.9 1.25-2.88 1.75-3.12 1.75-3.12 3.62-4.62 2.91-0.684 4.51 0.191 7.12 1.5v-2c-0.99-0.33-1.98-0.66-3-1 0.99-0.33 1.98-0.66 3-1 0.702-1.65 1.37-3.32 2-5 0.99-0.495 0.99-0.495 2-1 0.615-2.28 0.615-2.28 1-4.94 0.78-4.84 0.78-4.84 3-7.06 0.33-1.32 0.66-2.64 1-4 4.45-0.495 4.45-0.495 9-1v11h2v2h2c0.33 0.99 0.66 1.98 1 3h4c0.186-0.681 0.371-1.36 0.562-2.06 1.99-4.07 4.94-7.07 8.44-9.94h2c0.33-0.99 0.66-1.98 1-3 2.64 0.66 5.28 1.32 8 2v2c0.66-0.165 1.32-0.33 2-0.5 3.73-0.622 7.22-0.564 11-0.5-0.376 2.78-0.673 4.59-2.44 6.81-1.56 1.19-1.56 1.19-3.56 1.19-0.371 0.88-0.371 0.88-0.75 1.78-1.43 2.55-3 3.93-5.25 5.79-2.56 2.11-4.13 3.64-6 6.44h-2c-0.382 1.66-0.714 3.32-1 5 1.02 1.24 1.02 1.24 3.17 1.12 0.96-0.0049 1.92-0.00981 2.91-0.0149 1.08-0.00396 2.17-0.00792 3.29-0.012 4.98-0.0478 9.95-0.0978 14.9-0.166 2.63-0.0318 5.25-0.053 7.88-0.0635 3.78-0.0152 7.56-0.0626 11.3-0.117 1.17 7.96e-4 2.35 0.00159 3.56 0.00241 6.65 0.0804 6.65 0.0804 12.1-3.22 0.613-0.832 1.23-1.66 1.86-2.52 0.722-0.351 1.44-0.701 2.19-1.06 2.39-1.24 2.65-2.54 3.81-4.94l5-5c0.788-1.13 1.56-2.28 2.31-3.44 2.88-4.16 6.56-6.73 10.7-9.56 0.552-0.428 1.1-0.856 1.67-1.3 2.36-1.78 3.91-2.69 6.89-2.77zm-95.6 33.1c-0.33 0.66-0.66 1.32-1 2h2c-0.33-0.66-0.66-1.32-1-2zm94 2v1h7v-1h-7zm-35 60v1h11v-1h-11zm-212 49v1h10v-1h-10zm11 2 1 2z" fill="#007BC0"/>
<path transform="translate(852,1020)" d="m0 0c1.21 2.33 2.17 4.5 3 7 1.6 0.427 1.6 0.427 3.22 0.863 4.42 1.33 6.11 2.97 9.21 6.32 3.09 3.26 6.17 6.43 9.62 9.31 4.27 3.61 7.82 7.8 11.4 12 5.14 5.05 9.98 5.92 16.9 6.14 0.736 0.0342 1.47 0.0683 2.23 0.104 1.8 0.0817 3.6 0.147 5.39 0.209v-2c4.04-0.0875 8.08-0.141 12.1-0.188 1.14-0.0251 2.28-0.0503 3.46-0.0762 10.7-0.0933 10.7-0.0933 15.4 3.26 2.35 2.84 3.77 4.96 4.56 8.56-0.876 3.79-2.44 5.15-5.56 7.44-6.18 1.41-12.8 1.13-19.1 1.06-0.866-0.00451-1.73-0.00902-2.62-0.0137-2.1-0.0116-4.21-0.0296-6.31-0.0488 0.887 1.26 1.79 2.5 2.69 3.75 0.748 1.04 0.748 1.04 1.51 2.11 3.72 4.48 3.72 4.48 9.04 6.52 2.81 0.162 5.6 0.199 8.42 0.193 1.54 0.0212 1.54 0.0212 3.12 0.0429 3.28 0.0419 6.56 0.0571 9.84 0.0704 3.29 0.0291 6.58 0.0636 9.86 0.102 2.04 0.0225 4.09 0.0383 6.13 0.0468 0.925 0.00703 1.85 0.0141 2.8 0.0213 1.22 0.00522 1.22 0.00522 2.46 0.0105 3.34 0.207 4.9 0.923 7.3 3.26 2.32 3.69 2.49 5.58 1.81 9.88-1.57 3.04-2.2 4.22-5 6-4.76 0.902-9.47 0.885-14.3 0.875-1.31 0.0206-2.63 0.0412-3.98 0.0625-3.24 0.0471-6.47 0.0669-9.71 0.0625 1.21 1.14 1.21 1.14 2.44 2.31 2.56 2.69 2.56 2.69 3.56 5.69 0.598 0.289 1.2 0.578 1.81 0.875 2.91 1.5 4.33 3.47 6.19 6.12v2h2c1.62 3.23 1.48 5.43 1 9-1.92 2.72-3.89 4.78-7 6-6.17-0.887-9.58-3.75-13.9-7.94-0.58-0.538-1.16-1.08-1.76-1.63-2.55-2.42-4.24-4.05-5.37-7.43h-3c-0.0376 0.945-0.0376 0.945-0.0759 1.91-0.117 2.88-0.239 5.77-0.362 8.65-0.0393 0.991-0.0786 1.98-0.119 3-0.614 14.2-0.614 14.2-2.73 17.3-3.3 2.1-6.96 1.7-10.7 1.09-2.87-1.79-4.49-2.98-6-6-0.0778-1.46-0.094-2.92-0.0784-4.38 0.00588-0.909 0.0118-1.82 0.0178-2.75 0.0126-1.48 0.0126-1.48 0.0254-2.99-0.00372-2.09-0.00965-4.18-0.0176-6.27-0.0105-3.29-0.00999-6.59 0.0286-9.88 0.683-14.4 0.683-14.4-4.72-27.1-2.82-2.87-5.46-4.31-9.25-5.62 0.33 0.99 0.66 1.98 1 3 0.0975 2.55 0.142 5.07 0.125 7.62-0.00411 0.718-0.00822 1.44-0.0125 2.17-0.136 12.9-0.136 12.9-2.18 17.7-3.04 2.35-6.2 2.81-9.94 2.5-3.8-1.97-5.63-3.44-8-7-0.18-2.04-0.18-2.04-0.0842-4.4 0.0292-0.888 0.0584-1.78 0.0885-2.69 0.0386-0.959 0.0771-1.92 0.117-2.91 0.0497-2.04 0.0971-4.08 0.143-6.12 0.08-3.21 0.173-6.42 0.305-9.63 1.14-13.9 1.14-13.9-4.44-26.1-1.68-1.44-3.39-2.84-5.13-4.19-1.77-1.74-3.52-3.5-5.25-5.28-2.69-2.65-5.38-5.29-8.08-7.92-1.29-1.28-1.29-1.28-2.61-2.58-0.781-0.764-1.56-1.53-2.37-2.31-1.69-1.9-1.69-1.9-1.69-3.9-0.557-0.206-1.11-0.412-1.69-0.625-2.26-1.34-3.31-2.43-4.94-4.44-2.05-2.95-2.05-2.95-4.38-3.94-0.116 7.48-0.205 15-0.259 22.4-0.0261 3.47-0.0614 6.94-0.118 10.4-0.0649 3.99-0.089 7.99-0.111 12-0.0258 1.24-0.0516 2.49-0.0782 3.77-0.213 5.88-0.213 5.88 1.71 11.3 1.49 1.51 1.49 1.51 3.85 3.15v2h2v2c0.558 0.233 1.12 0.465 1.69 0.705 2.91 1.63 4.91 3.65 7.26 6.01 0.93 0.932 1.86 1.86 2.82 2.82 0.479 0.485 0.958 0.97 1.45 1.47 1.47 1.49 2.95 2.97 4.42 4.44 8.26 8.31 8.26 8.31 8.67 13.4-0.0542 2.99-0.214 3.97-1.88 6.56-3.52 2.25-5.2 2.84-9.44 2.56-6.92-4.1-12.5-10.3-18-16.1-1.81-2.13-1.81-2.13-4.03-1.91-0.0814 2.4-0.141 4.79-0.188 7.19-0.0251 0.674-0.0503 1.35-0.0762 2.04-0.0775 5.3 1.03 8.28 4.56 12.2 1.57 1.62 3.18 3.2 4.8 4.77 0.882 0.871 0.882 0.871 1.78 1.76 1.87 1.85 3.75 3.68 5.62 5.52 2.47 2.42 4.94 4.85 7.41 7.28 0.566 0.549 1.13 1.1 1.71 1.66 3.8 3.75 6.97 7.11 7.88 12.6-0.688 4.13-2.21 5.49-5.5 8-2.94 1.06-2.94 1.06-6 1-5.66-2.99-5.66-2.99-7-7-0.572-0.286-1.14-0.572-1.73-0.867-3.11-1.55-5.1-3.78-7.52-6.26-0.892-0.91-1.78-1.82-2.7-2.76-1.01-1.05-1.01-1.05-2.05-2.12-1.01 3.02-1.07 4.91-1 8.06 0.0737 13.9 0.0737 13.9-2.62 19-3.22 2.63-5.23 3.01-9.38 2.94-4.04-2.06-6.36-3.78-8-8-0.227-2.47-0.227-2.47-0.195-5.2 0.00645-0.98 0.0129-1.96 0.0195-2.97 0.0168-1.02 0.0335-2.03 0.0508-3.08 0.00902-1.03 0.018-2.06 0.0273-3.12 0.0235-2.54 0.0564-5.08 0.0977-7.62-3.8 2.39-6.82 4.62-9.62 8.12-1.78 2.22-2.96 3.67-5.52 4.93-2.21 0.856-2.21 0.856-2.85 3.95-2.66 1.48-4.45 2.03-7.5 1.88-3.22-1.13-5.12-2.42-7.5-4.88-1.06-2.81-1.06-2.81-1-6 2.28-4.99 4.96-8.26 9-12 0.825-0.825 1.65-1.65 2.5-2.5l12.5-12.5c0.887-0.928 1.77-1.86 2.69-2.81 2.31-2.19 2.31-2.19 4.31-2.19 2.71-3.98 2.22-8.14 2.12-12.8-0.00902-0.793-0.018-1.59-0.0273-2.4-0.0235-1.95-0.0594-3.9-0.0977-5.85-5.22 4.31-9.91 8.92-14.6 13.8-3.13 2.8-5.69 4.26-9.93 4.05-3.22-1.13-5.12-2.42-7.5-4.88-1.21-3.55-1.41-5.17 0.25-8.56 0.577-0.804 1.15-1.61 1.75-2.44 0.474-0.887 0.949-1.77 1.44-2.69 1.56-2.31 1.56-2.31 3.45-3.22 2.47-1.28 3.67-2.69 5.42-4.84 3.22-3.8 6.58-7.39 10.7-10.2h2c0.227-0.557 0.454-1.11 0.688-1.69 1.31-2.31 1.31-2.31 3.85-4.11 3.62-3.59 3.07-8.05 3.13-12.9-0.0102-1.28-0.0204-2.56-0.0309-3.88 0.0159-2.02 0.0317-4.03 0.0481-6.05 0.0168-2.82 0.0111-5.63 0.00546-8.45-0.00646-4.94 0.0162-9.88 0.0487-14.8 0.015-2.63 0.0187-5.26 0.0102-7.89 0.00373-1.18 0.00746-2.37 0.0113-3.59-0.00264-1.57-0.00264-1.57-0.00533-3.17 0.245-2.48 0.245-2.48 2.24-4.48 0.66 2.64 1.32 5.28 2 8h2c0.333 2 0.667 4 1 6 0.206 1.07 0.413 2.14 0.625 3.25 0.375 2.75 0.375 2.75-0.625 4.75 2.87-0.573 3.86-0.861 6-3l1 2c0.11-0.571 0.219-1.14 0.332-1.73 1.39-7.13 3.01-14.2 4.67-21.3 0.619-0.103 1.24-0.206 1.88-0.312 2.49-0.563 2.49-0.563 4.12-3.69 0.633-2.11 0.633-2.11 1-4 1.98-0.33 3.96-0.66 6-1zm62 41v1h11v-1h-11z" fill="#027BBB"/>
<path transform="translate(825,1087)" d="m0 0c2.91 1.07 3.83 1.64 5.19 4.5 0.268 0.825 0.536 1.65 0.812 2.5l1 2c0.99 0.33 1.98 0.66 3 1 0.0543 1.75 0.0929 3.5 0.125 5.25 0.0232 0.975 0.0464 1.95 0.0703 2.95-0.2 2.87-0.815 4.33-2.2 6.8-0.383 1.99-0.726 3.99-1 6 0.99 0.33 1.98 0.66 3 1 0.144 0.763 0.289 1.53 0.438 2.31 0.526 2.77 0.526 2.77 1.56 5.69v2c-0.99 0.33-1.98 0.66-3 1 0.99 0.495 0.99 0.495 2 1-0.33 1.32-0.66 2.64-1 4 1.14 0.0928 1.14 0.0928 2.31 0.188 2.69 0.812 2.69 0.812 3.97 2.97 2.16 3.57 4.83 6.16 7.81 9.06 0.882 0.871 0.882 0.871 1.78 1.76 1.87 1.85 3.75 3.68 5.62 5.52 2.47 2.42 4.94 4.85 7.41 7.28 0.566 0.549 1.13 1.1 1.71 1.66 3.8 3.75 6.97 7.11 7.88 12.6-0.688 4.13-2.21 5.49-5.5 8-2.94 1.06-2.94 1.06-6 1-5.66-2.99-5.66-2.99-7-7-0.572-0.286-1.14-0.572-1.73-0.867-3.11-1.55-5.1-3.78-7.52-6.26-0.892-0.91-1.78-1.82-2.7-2.76-1.01-1.05-1.01-1.05-2.05-2.12-1.01 3.02-1.07 4.91-1 8.06 0.0737 13.9 0.0737 13.9-2.62 19-3.22 2.63-5.23 3.01-9.38 2.94-4.04-2.06-6.36-3.78-8-8-0.227-2.47-0.227-2.47-0.195-5.2 0.00645-0.98 0.0129-1.96 0.0195-2.97 0.0168-1.02 0.0335-2.03 0.0508-3.08 0.00902-1.03 0.018-2.06 0.0273-3.12 0.0235-2.54 0.0564-5.08 0.0977-7.62-3.8 2.39-6.82 4.62-9.62 8.12-1.78 2.22-2.96 3.67-5.52 4.93-2.21 0.856-2.21 0.856-2.85 3.95-2.66 1.48-4.45 2.03-7.5 1.88-3.22-1.13-5.12-2.42-7.5-4.88-1.06-2.81-1.06-2.81-1-6 2.28-4.99 4.96-8.26 9-12 0.825-0.825 1.65-1.65 2.5-2.5 4.17-4.17 8.33-8.33 12.5-12.5 0.887-0.928 1.77-1.86 2.69-2.81 2.31-2.19 2.31-2.19 4.31-2.19 2.71-3.98 2.22-8.14 2.12-12.8-0.00902-0.793-0.018-1.59-0.0273-2.4-0.0235-1.95-0.0594-3.9-0.0977-5.85-0.466 0.399-0.932 0.799-1.41 1.21-4.2 3.6-8.39 7.19-12.6 10.8-0.66-0.66-1.32-1.32-2-2 0.33-0.99 0.66-1.98 1-3h-3c0.312-1.88 0.312-1.88 1-4 0.99-0.66 1.98-1.32 3-2 1.2-2.55 1.2-2.55 2-5h4l1-2h3c-0.99-0.33-1.98-0.66-3-1v-2h6v-2h2c0.495-1.48 0.495-1.48 1-3h3c0.66-1.32 1.32-2.64 2-4-0.66-0.33-1.32-0.66-2-1v-2h2v-2h-5c0.289-0.543 0.577-1.09 0.875-1.64 0.371-0.715 0.742-1.43 1.12-2.17 0.371-0.708 0.742-1.42 1.12-2.14 1.07-2.13 1.07-2.13 0.875-5.04z" fill="#007CC0"/>
<path transform="translate(691 1093)" d="m0 0c0.848 0.00322 1.7 0.00645 2.57 0.00977 0.881 0.00838 1.76 0.0168 2.67 0.0254 1.34 0.00677 1.34 0.00677 2.71 0.0137 2.2 0.0118 4.4 0.0282 6.61 0.0488 0.281 0.641 0.563 1.28 0.853 1.94 0.985 2.28 0.985 2.28 3.5 2.95 5.96 1 9.82 1.01 15.6-0.898 2.34 0.256 4.68 0.593 7 1 4.33 0.296 7.26 0.495 11-2 0.99 0.33 1.98 0.66 3 1 1.66 0.348 3.33 0.684 5 1-0.312 2.38-0.312 2.38-1 5-0.99 0.66-1.98 1.32-3 2-1.62 4.78-1.15 10.2-1.18 15.2-0.0232 2.01-0.0473 4.02-0.0723 6.04-0.0352 3.16-0.0645 6.32-0.0779 9.48-0.0155 3.06-0.0557 6.11-0.0999 9.17 0.00191 0.943 0.00382 1.89 0.00578 2.86-0.0798 4.28-0.197 6.68-2.48 10.4-2.35 2.14-3.33 2.61-6.47 2.6-1.09 0.0367-1.09 0.0367-2.21 0.0742-3.95-1.25-6.43-3.2-8.41-6.76-0.73-4.48-0.566-8.85-0.375-13.4 0.0406-1.82 0.0406-1.82 0.082-3.68 0.0705-2.98 0.169-5.97 0.293-8.95-3.27 1.54-5.12 3.02-7.44 5.81-0.909 1.07-0.909 1.07-1.84 2.15-0.57 0.672-1.14 1.34-1.73 2.04-3.39 3.81-5.86 6.16-11 7-4.1-1.48-7.49-3.39-10-7-0.279-4.83 1.1-7.49 4.12-11.1 2.91-3.11 6-5.85 9.39-8.42 1.9-1.95 2.53-3.99 3.48-6.52-1.19 0.0314-1.19 0.0314-2.4 0.0635-3.6 0.0833-7.19 0.135-10.8 0.187-1.25 0.0335-2.49 0.067-3.78 0.102-1.8 0.0193-1.8 0.0193-3.64 0.0391-1.66 0.0314-1.66 0.0314-3.35 0.0635-3.74-0.557-5.36-1.85-8.05-4.45-1.57-3.14-1.35-5.54-1-9 3.72-4.63 6.61-6.14 12.4-6.1zm10.6 17.1v1h10v-1h-10zm11 2 1 2z" fill="#027BBA"/>
<path transform="translate(772,1058)" d="m0 0h5c0.402 0.897 0.402 0.897 0.812 1.81 2.02 3.73 4.35 5.47 8.19 7.19-1.62 2.04-3.29 4.04-5 6h-2c-0.597 9.66-1.06 19.3-0.961 29 0.00885 1.01 0.00885 1.01 0.0179 2.05 0.0317 3.37 0.0817 6.74 0.156 10.1 0.0148 1.24 0.0296 2.48 0.0449 3.75 0.0221 1.11 0.0442 2.21 0.0669 3.36-0.325 2.76-0.325 2.76-1.61 4.58-3.04 2.1-6.13 2.58-9.72 2.18-3.09-1.39-5.11-3.19-7-6-0.855-4.32-0.663-8.49-0.438-12.9 0.0316-1.17 0.0632-2.33 0.0957-3.53 0.0823-2.87 0.197-5.73 0.342-8.59-3.37 0.547-5.08 1.05-8 3v-2c-0.949 0.0412-1.9 0.0825-2.88 0.125-3.12-0.125-3.12-0.125-5.12-2.12l-1 2c-3.24 1.08-5.66 1.13-9.06 1.12-1.06 0.00258-2.13 0.00516-3.22 0.00781-2.71-0.133-2.71-0.133-4.71-1.13-1.32 0.332-2.64 0.715-3.94 1.12-5.81 1.44-10.5-0.204-16.1-2.12v-1c-1.98-0.33-3.96-0.66-6-1v-1c4.3-0.829 8.31-1.09 12.7-1.04 1.26-0.0058 2.51-0.0116 3.81-0.0176 2.63-0.0065 5.25 0.0143 7.88 0.0625 6.92 0.0749 6.92 0.0749 13-2.75 1.75-2.01 3.18-4.04 4.64-6.26 0.975-1.02 1.97-2.03 3-3-1.04-1.27-1.04-1.27-3.33-1.07-1.01 0.0243-2.02 0.0487-3.06 0.0737-1.1 0.0168-2.2 0.0335-3.34 0.0508-2.33 0.044-4.66 0.096-6.99 0.156-1.11 0.0142-2.21 0.0284-3.36 0.043-1.01 0.0221-2.03 0.0442-3.08 0.0669-4.39-0.5-6.97-2.25-9.72-5.64-1.42-3.4-1.19-5.18-0.125-8.69 2.11-2.95 4.61-3.9 8-5 2.61-0.165 5.1-0.234 7.71-0.195 1.09 0.00424 1.09 0.00424 2.2 0.00858 2.3 0.0111 4.6 0.0362 6.91 0.0617 1.57 0.01 3.13 0.0192 4.7 0.0273 3.83 0.022 7.66 0.0565 11.5 0.0977v4c0.66 0.33 1.32 0.66 2 1 0.33-0.66 0.66-1.32 1-2v2h4c-0.66-0.66-1.32-1.32-2-2 1.65-0.0269 3.29-0.0463 4.94-0.0625 1.37-0.0174 1.37-0.0174 2.78-0.0352 2.29 0.0977 2.29 0.0977 3.29 1.1 0.66-0.66 1.32-1.32 2-2 0.495 0.495 0.495 0.495 1 1 0.99-0.33 1.98-0.66 3-1h1v-4c-0.99 0.33-1.98 0.66-3 1l-1-2z" fill="#007CC0"/>
<path transform="translate(945,695)" d="m0 0v2h7v2c0.99-0.33 1.98-0.66 3-1 1.56-0.0674 3.13-0.0851 4.69-0.0625 1.21 0.0135 1.21 0.0135 2.45 0.0273 0.922 0.0174 0.922 0.0174 1.86 0.0352v2h8v2c-1.48 0.0269-2.96 0.0463-4.44 0.0625-1.24 0.0174-1.24 0.0174-2.5 0.0352-2.07-0.0977-2.07-0.0977-3.07-1.1-2.15-0.105-4.31-0.139-6.46-0.145-0.675-0.00336-1.35-0.00672-2.05-0.0102-2.24-0.00954-4.49-0.0115-6.73-0.0125-1.56-0.00321-3.11-0.00658-4.67-0.0101-3.27-6e-3 -6.54-0.00784-9.81-0.00725-4.18 1.01e-4 -8.37-0.0135-12.6-0.0308-3.22-0.0111-6.43-0.0131-9.65-0.0126-1.54-0.00118-3.08-0.0056-4.63-0.0133-2.16-0.00982-4.32-0.00691-6.48-8.95e-4 -1.23-0.00143-2.46-0.00285-3.73-0.00432-3.21 0.244-5.35 0.943-8.25 2.25-2.19 0.32-4.39 0.562-6.59 0.746-1.28 0.115-2.56 0.231-3.88 0.35-2.66 0.227-5.31 0.449-7.97 0.672-7.41 0.671-14.5 1.71-21.7 3.58-3.87 0.877-7.7 1.15-11.7 1.35-2.52 0.181-2.52 0.181-5.24 2.31-1.68 0.459-3.38 0.845-5.09 1.18-1.01 0.204-2.02 0.408-3.05 0.618-1.07 0.21-2.14 0.42-3.24 0.636-2.18 0.442-4.36 0.884-6.55 1.33-1.57 0.318-1.57 0.318-3.18 0.643-9.44 1.89-9.44 1.89-18.7 4.52-3.97 1.32-7.99 2.41-12 3.51-7.25 1.99-14.4 4.17-21.4 6.75-2.74 0.809-4.91 0.979-7.75 0.812-0.186-0.784-0.371-1.57-0.562-2.38-1.28-3.02-1.28-3.02-5.06-3.94-1.11-0.227-2.23-0.454-3.38-0.688v-2h2c-0.33-1.98-0.66-3.96-1-6 3.79-0.965 7.57-1.93 11.4-2.88 1.91-0.482 3.81-0.969 5.72-1.46 6.5-1.64 13-3.09 19.6-4.22 3.19-0.598 6.25-1.54 9.36-2.44 3.28-0.735 6.57-1.37 9.88-2 0.912-0.174 1.82-0.349 2.76-0.529 6.74-1.25 13.5-2.2 20.3-2.88 3.32-0.0761 3.32-0.0761 6.07-1.6 2.86-0.387 5.7-0.715 8.56-1 0.847-0.0869 1.69-0.174 2.57-0.263 7.95-0.791 15.9-1.32 23.9-1.74v-1c27.9-1.56 56.1-1.76 84 0zm-5 1 4 1z" fill="#027BBA"/>
<path transform="translate(901,1010)" d="m0 0c1.68 0.286 3.34 0.618 5 1v2c1.32-0.33 2.64-0.66 4-1v3c1.13 0.268 2.27 0.536 3.44 0.812 1.18 0.392 2.35 0.784 3.56 1.19 0.495 1.49 0.495 1.49 1 3 1.67 0.0427 3.33 0.0406 5 0 0.33-0.33 0.66-0.66 1-1 1.67-0.0406 3.33-0.0427 5 0v-2c6.62-1.12 6.62-1.12 10 0v-2h9c-0.495-2.48-0.495-2.48-1-5 0.99 0.33 1.98 0.66 3 1v5c1.98-0.348 1.98-0.348 4-1 0.33-0.66 0.66-1.32 1-2h8c0.495 3.47 0.495 3.47 1 7h5v-2h8c0.33-0.66 0.66-1.32 1-2 0.495 0.99 0.495 0.99 1 2 1.13 0.19 1.13 0.19 2.29 0.384 3.37 0.766 4.62 2.04 7.03 4.48 0.782 0.786 1.56 1.57 2.37 2.38 0.803 0.828 1.61 1.66 2.43 2.51 0.811 0.812 1.62 1.62 2.46 2.46 7.08 7.19 7.08 7.19 9.42 11.8-0.0681 3.88-0.465 6.2-2.62 9.44-2.48 1.63-4.27 2.39-7.27 2.18-9.86-2.91-17.1-12.7-23.7-20.1-2.06-2.29-4.19-4.49-6.34-6.69-0.669-0.683-1.34-1.37-2.03-2.07-5.16-4.58-9.16-5.3-15.8-5.49-0.788-0.0342-1.58-0.0683-2.39-0.104-1.93-0.082-3.87-0.147-5.8-0.209 1.38 3.2 2.86 4.95 5.56 7.12 12.6 10.8 12.6 10.8 14.1 16.4 0.163 3.67-0.344 5.88-2.21 9.06-3.53 2.03-6.52 2.13-10.5 1.44-2.5-1.38-2.5-1.38-4-3v-2c-0.639-0.268-1.28-0.536-1.94-0.812-2.06-1.19-2.06-1.19-3.06-4.19-0.618-0.299-1.24-0.598-1.87-0.906-2.74-1.41-3.56-2.99-5.17-5.59-5.23-7.27-10.7-14-19.7-16.2-15.2-2.42-30.9-1.87-46.3-1.35v-2c8.57-1.29 8.57-1.29 12 0 0.33-0.66 0.66-1.32 1-2 2.5-0.414 2.5-0.414 5.56-0.625 1.01-0.0748 2.02-0.15 3.07-0.227 0.782-0.049 1.56-0.098 2.37-0.148-0.33-0.66-0.66-1.32-1-2 3.15-0.787 6.03-1.05 9.25-1h3.75l1-1z" fill="#027CBB"/>
<path transform="translate(942 502)" d="m0 0c0.536 0.33 1.07 0.66 1.62 1-1.32 4.6-3.09 8.18-6 12h-2c-0.263 0.604-0.526 1.21-0.798 1.83-1.27 2.3-2.35 3.35-4.44 4.91-0.648 0.488-1.3 0.975-1.96 1.48-1.04 0.761-1.04 0.761-2.11 1.54-0.721 0.531-1.44 1.06-2.18 1.61-8.87 6.46-18.1 12-27.9 17-0.981 0.501-0.981 0.501-1.98 1.01-4.13 2.04-8.17 3.44-12.6 4.61-0.949 0.351-1.9 0.701-2.88 1.06-6.16 1.85-12.2 2.9-18.1-0.0625 0.434-7.23 3.12-10.4 8.25-15 10-8.48 21.1-16 32.8-22 0.82-0.429 1.64-0.859 2.48-1.3 7.33-3.76 14.6-6.53 22.5-8.7 1.18-0.371 2.35-0.743 3.56-1.12 4.29-1.09 7.67-1.62 11.8 0.125z" fill="#F7852A"/>
<path transform="translate(671 429)" d="m0 0c15.8 5.36 29 30.8 36.3 44.8 5.16 10.9 10.7 23.1 10 35.3-0.66 0.66-1.32 1.32-2 2-6.91-0.561-12.2-5.31-17-10-5-6.02-5-6.02-5-9-1.49-0.495-1.49-0.495-3-1-1.45-1.98-2.74-3.91-4-6-0.383-0.619-0.765-1.24-1.16-1.88-21.5-35.2-21.5-35.2-19.8-51.1 1.9-2.52 2.47-2.98 5.69-3.12z" fill="#F7852A"/>
<path transform="translate(610,502)" d="m0 0c3.5 1.02 6.7 2.48 10 4 1.06 0.423 2.11 0.846 3.2 1.28 14.4 5.81 26.8 14 38.8 23.7 1.18 0.926 1.18 0.926 2.38 1.87 4.77 3.91 9.1 8.42 11.6 14.1-0.223 2.21-0.223 2.21-1 4-5.65 2.82-12.7 0.853-18.4-1.02-4.65-1.75-9.12-3.81-13.6-5.98-0.971-0.465-1.94-0.931-2.94-1.41-12.4-6.05-23.3-13-34.1-21.6-0.95-0.718-1.9-1.44-2.88-2.18-0.7-0.602-1.4-1.2-2.12-1.82v-2c-0.99-0.33-1.98-0.66-3-1-1.42-1.49-1.42-1.49-2.75-3.31-0.449-0.594-0.897-1.19-1.36-1.8-0.891-1.89-0.891-1.89-0.719-3.99 2.79-6.39 11.4-3.76 16.8-2.89z" fill="#F7852A"/>
<path transform="translate(609 593)" d="m0 0c2.33 0.0182 4.65 0.0205 6.98 0.0203 28 0.0637 28 0.0637 37.5 4.19 1.13 0.454 2.27 0.908 3.44 1.38 3 1.9 3.65 3.25 4.56 6.62-5.54 4.9-9.65 6.81-17 8-1.38 0.247-1.38 0.247-2.79 0.5-16.1 2.84-31.9 3.44-48.1 1.19-1.28-0.176-1.28-0.176-2.59-0.356-16.8-2.54-16.8-2.54-22.5-7.33-0.812-2.69-0.812-2.69-1-5 12.7-8.99 26.4-9.33 41.5-9.21z" fill="#F7852A"/>
<path transform="translate(924 593)" d="m0 0c1.13-0.00524 1.13-0.00524 2.29-0.0106 32-0.0821 32-0.0821 42.1 8.86 1.27 1.46 1.27 1.46 1.27 3.46-1.45 2.89-3.1 3.61-6 5-2.31 0.729-4.65 1.39-7 2-1.18 0.371-2.35 0.742-3.56 1.12-3.32 0.845-6.04 0.954-9.44 0.875-0.66 0.33-1.32 0.66-2 1-3.2 0.372-6.41 0.475-9.62 0.625-1.41 0.0665-1.41 0.0665-2.84 0.134-19.9 0.799-19.9 0.799-27.5-1.76-1.69-0.126-3.37-0.227-5.06-0.312-8.75-0.752-15.6-3.66-21.9-9.69 12.5-13.2 32.3-11.3 49.3-11.3z" fill="#F7852A"/>
<path transform="translate(767,402)" d="m0 0c1.81 0.0625 1.81 0.0625 4 1 3.75 4.7 5.07 9.1 6.25 14.9 0.173 0.773 0.345 1.55 0.523 2.34 0.993 4.66 1.3 8.93 1.23 13.7 0.16 0.588 0.32 1.18 0.484 1.78 1.13 4.86 0.742 10 0.756 15 0.00957 2.06 0.0406 4.11 0.0723 6.17 0.0715 9.07-1.06 17.3-3.31 26.1-0.247 1.11-0.247 1.11-0.499 2.24-0.977 4.06-2.55 6.81-5.5 9.76-2 1.06-2 1.06-4 1-5.47-3.81-7.08-11.3-8.33-17.6-3.79-21.8-6.46-54.2 6.03-73.7 1.3-1.73 1.3-1.73 2.3-2.73zm-6 12 1 2z" fill="#F7852A"/>
<path transform="translate(867 429)" d="m0 0c2 0.688 2 0.688 4 2.69 0.292 16-7.01 33.7-17 46-0.798 1.41-1.55 2.85-2.25 4.31-0.335 0.697-0.67 1.39-1.02 2.11-0.364 0.779-0.364 0.779-0.734 1.57h-2c-0.433 1.11-0.433 1.11-0.875 2.25-0.948 2.32-1.97 4.53-3.12 6.75h-2c-0.412 0.882-0.412 0.882-0.832 1.78-3.26 6.2-7.84 10.3-14.2 13.2-2.81 0.375-2.81 0.375-5 0-2-2-2-2-2.38-5.31 0.526-15.5 10.1-32 18.4-44.7 0.386-0.612 0.773-1.22 1.17-1.85 19.1-30.2 19.1-30.2 27.8-28.8z" fill="#F7852A"/>
<path transform="translate(675,657)" d="m0 0c1.36 2.72 0.862 4.13 0 7-0.99 0.66-1.98 1.32-3 2-0.668 1.33-1.33 2.67-2 4-4.46 4.58-9.67 8.48-15 12h-2c-0.495 1.49-0.495 1.49-1 3-1.98 1.04-3.99 2.03-6 3-1.49 0.982-2.97 1.98-4.44 3-3.76 2.56-7.36 4.3-11.6 6-0.804 0.495-1.61 0.99-2.44 1.5-3.38 1.98-6.88 3.21-10.6 4.5-0.949 0.371-1.9 0.742-2.88 1.12-3.63 1.02-7.11 1.35-10.9 1.63-2.43 0.183-2.43 0.183-5.27 1.25-2.19-1.44-2.19-1.44-4-3 0.161-6.44 3.6-9.74 8-14 6.84-6.14 14.1-11.3 22-16 0.869-0.536 1.74-1.07 2.63-1.62 5.01-3.06 10.1-5.85 15.4-8.38 0.773-0.401 1.55-0.802 2.34-1.21 5.69-2.82 11.4-4.7 17.5-6.22 0.726-0.188 1.45-0.376 2.2-0.57 4.28-0.992 7.09-1.28 10.9 1.01z" fill="#F7852A"/>
<path transform="translate(906,1080)" d="m0 0c3.31-0.675 4.82-0.948 8 0 2.97 2.67 5.36 5.42 7.9 8.5 1.85 2.55 1.85 2.55 4.1 3.5 1.5 0.113 2.99 0.167 4.49 0.189 0.931 0.0167 1.86 0.0334 2.82 0.0507 1.01 0.0136 2.02 0.0272 3.06 0.0411 1.03 0.0184 2.07 0.0368 3.13 0.0558 3.31 0.0589 6.62 0.112 9.94 0.163 4.35 0.0676 8.71 0.141 13.1 0.219 1.01 0.0136 2.01 0.0272 3.05 0.0411 1.4 0.0251 1.4 0.0251 2.83 0.0507 1.23 0.0188 1.23 0.0188 2.49 0.038 3.34 0.237 4.91 0.937 7.32 3.28 2.32 3.69 2.49 5.58 1.81 9.88-1.58 3.02-2.21 4.22-5 6-4.68 0.855-9.31 0.793-14.1 0.75-2.53 0.00766-5.07 0.0229-7.6 0.0469-1.12-0.00677-2.24-0.0135-3.39-0.0205-2.88 0.219-4.51 0.725-6.95 2.22v3c-2-1-2-1-3-4-0.99-0.33-1.98-0.66-3-1l-1 2c-1.98-0.66-3.96-1.32-6-2-0.144-0.804-0.289-1.61-0.438-2.44-0.304-2.48-0.304-2.48-1.56-3.56 0.206 1.03 0.413 2.06 0.625 3.12 0.375 3.88 0.375 3.88-0.688 6.94-1.18 3.68-0.431 5.45 1.06 8.94h2v4c-4.07 3-4.07 3-7 3 0.66-2.97 1.32-5.94 2-9h-2l-2-4h-2l1-6h2c-0.195-1.95-0.195-1.95-1-4-1.32-0.684-2.66-1.35-4-2-1.41-2.3-2.14-4.43-3-7 0.33-0.99 0.66-1.98 1-3h-3v-4h2c-0.495-0.949-0.99-1.9-1.5-2.88-1.5-3.12-1.5-3.12-1.5-5.12h-5c-0.33-1.98-0.66-3.96-1-6z" fill="#007CC0"/>
<path transform="translate(772,1058)" d="m0 0h5c0.402 0.897 0.402 0.897 0.812 1.81 2.02 3.73 4.35 5.47 8.19 7.19-1.62 2.04-3.29 4.04-5 6h-2c-0.66 1.32-1.32 2.64-2 4-3.61 0-6.54-1.01-10-2h-3c-0.99-0.33-1.98-0.66-3-1-0.495 0.495-0.495 0.495-1 1h-4c-0.33 1.32-0.66 2.64-1 4-7.62 2.12-7.62 2.12-11 1-1.86-0.048-3.72-0.0375-5.59 0.00781-1.64 0.0251-1.64 0.0251-3.32 0.0508-2.3 0.0441-4.61 0.0962-6.91 0.156-1.1 0.0142-2.2 0.0284-3.33 0.043-1 0.0221-2 0.0442-3.04 0.0669-4.36-0.503-6.95-2.26-9.69-5.64-1.42-3.4-1.19-5.18-0.125-8.69 2.11-2.95 4.61-3.9 8-5 2.61-0.165 5.1-0.234 7.71-0.195 1.09 0.00424 1.09 0.00424 2.2 0.00858 2.3 0.0111 4.6 0.0362 6.91 0.0617 1.57 0.01 3.13 0.0192 4.7 0.0273 3.83 0.022 7.66 0.0565 11.5 0.0977v4c0.66 0.33 1.32 0.66 2 1 0.33-0.66 0.66-1.32 1-2v2h4c-0.66-0.66-1.32-1.32-2-2 1.65-0.0269 3.29-0.0463 4.94-0.0625 1.37-0.0174 1.37-0.0174 2.78-0.0352 2.29 0.0977 2.29 0.0977 3.29 1.1 0.66-0.66 1.32-1.32 2-2 0.495 0.495 0.495 0.495 1 1 0.99-0.33 1.98-0.66 3-1h1v-4c-0.99 0.33-1.98 0.66-3 1l-1-2z" fill="#027CBB"/>
<path transform="translate(838,1148)" d="m0 0c8.31 1.54 13.1 3.76 19 10 1.85 2.14 1.85 2.14 4.36 2.84 3.16 1.39 4.66 3.04 6.89 5.66 0.686 0.794 1.37 1.59 2.08 2.41 2 2.51 2.62 3.71 3.05 6.91-0.375 3.19-0.375 3.19-2.5 6-3.24 2.46-4.82 3.27-8.88 3.19-5.66-2.99-5.66-2.99-7-7-0.572-0.286-1.14-0.572-1.73-0.867-3.11-1.55-5.1-3.78-7.52-6.26-0.892-0.91-1.78-1.82-2.7-2.76-0.675-0.699-1.35-1.4-2.05-2.12-1.01 3.02-1.07 4.91-1 8.06 0.0737 13.9 0.0737 13.9-2.62 19-3.22 2.63-5.23 3.01-9.38 2.94-4.04-2.06-6.38-3.77-8-8-0.227-2.66-0.227-2.66-0.195-5.64 0.00645-1.07 0.0129-2.14 0.0195-3.24 0.0168-1.11 0.0335-2.22 0.0508-3.37 0.00902-1.13 0.018-2.25 0.0273-3.41 0.0235-2.78 0.0564-5.56 0.0977-8.34h3v4c0.66 0.33 1.32 0.66 2 1-0.33 0.33-0.66 0.66-1 1 1.32 0.66 2.64 1.32 4 2v2h-3v10c1.65 0.33 3.3 0.66 5 1v2c-0.99 0.66-1.98 1.32-3 2 2.03 2.16 2.03 2.16 5 4 2.51-2.51 2.33-3.59 2.56-7.06 0.249-3.44 0.538-6.84 1-10.2 0.624-5.27 0.466-10.5 0.375-15.8 0.0625-2.84 0.0625-2.84 1.06-3.84-0.66-0.33-1.32-0.66-2-1 1-3 1-3 2-4 0.33-0.99 0.66-1.98 1-3z" fill="#027CBB"/>
<path transform="translate(782 1e3)" d="m0 0c3.08-0.116 6.17-0.187 9.25-0.25 0.873-0.0335 1.75-0.067 2.64-0.102 6.52-0.0996 6.52-0.0996 9.71 2.37 0.688 0.982 0.688 0.982 1.39 1.98-1.32 0.99-2.64 1.98-4 3 1.32 0.33 2.64 0.66 4 1-0.66 1.98-1.32 3.96-2 6 0.99 0.66 1.98 1.32 3 2v3c-12.7 0.8-25.4 1.11-38.1 1.12-0.711 0.0025-1.42 5e-3 -2.15 0.00757-2.04 0.0059-4.09 0.0044-6.13 2.44e-4 -1.78-0.00169-1.78-0.00169-3.59-0.00342-2.55-0.108-4.64-0.377-7.06-1.13-0.33-1.65-0.66-3.3-1-5h-3v-2h2v-2h-2v-2c0.66-0.33 1.32-0.66 2-1-0.66-0.66-1.32-1.32-2-2h5v-3h24v2h10c0.33-0.66 0.66-1.32 1-2-0.99-0.66-1.98-1.32-3-2z" fill="#027CBB"/>
<path transform="translate(486,927)" d="m0 0c3.4 1.29 5.54 2.32 8 5 0.99 0.66 1.98 1.32 3 2 0.188 2.62 0.188 2.62 0 5 1.45 0.433 1.45 0.433 2.94 0.875 3.06 1.12 3.06 1.12 4.06 3.12l-1 2c1.65-0.33 3.3-0.66 5-1 0.33 1.32 0.66 2.64 1 4 1.92 0.34 1.92 0.34 3.88 0.688 2.23 0.543 2.23 0.543 4.12 1.31 1.25 2.5 1.25 2.5 2 5 2.78 2.26 4.12 1.99 7.75 1.62 1.07-0.206 2.14-0.413 3.25-0.625v2c0.99 0.66 1.98 1.32 3 2v2c0.99 0.33 1.98 0.66 3 1v2l4-1v2c0.742-0.0412 1.49-0.0825 2.25-0.125 2.84 0.129 4.34 0.696 6.75 2.12 0.33-0.99 0.66-1.98 1-3 2.97 0.33 5.94 0.66 9 1 0.495 1.98 0.495 1.98 1 4 1.65 0.33 3.3 0.66 5 1v2c0.58-0.0105 1.16-0.0209 1.76-0.0317 2.64-0.0417 5.29-0.0676 7.93-0.0933 0.912-0.0168 1.82-0.0335 2.76-0.0508 4.62-0.0336 8.37-0.0598 12.5 2.18-0.495 0.99-0.495 0.99-1 2 6.01 1.89 11.3 2.11 17.6 2 5.17-0.00592 10.3 0.478 15.4 0.996v2h4v-2c6.62-2.12 6.62-2.12 10-1 0.99 0.144 1.98 0.289 3 0.438 3 0.562 3 0.562 6 2.56 0.99 0.33 1.98 0.66 3 1v2c-5.4 0.0502-10.8 0.0861-16.2 0.11-1.83 0.00994-3.66 0.0235-5.49 0.041-11.6 0.108-22.8-0.379-34.3-2.15-1.22-0.174-2.44-0.348-3.7-0.528-34.4-4.92-72.5-15.6-95.8-43.3-2.67-3.78-4.63-7.9-6.5-12.1z" fill="#027CBB"/>
<path transform="translate(791 960)" d="m0 0c1.89 0.588 1.89 0.588 3.81 1.19v1c-1.65 0.33-3.3 0.66-5 1 1.99 0.195 3.97 0.391 5.96 0.586 2.04 0.414 2.04 0.414 5.04 2.41 0.33 0.99 0.66 1.98 1 3 0.66 0.33 1.32 0.66 2 1v2c0.572 0.237 1.14 0.474 1.73 0.719 2.75 1.56 4.43 3.41 6.52 5.78 0.706 0.794 1.41 1.59 2.14 2.41 1.61 2.09 1.61 2.09 1.61 4.09 0.99 0.33 1.98 0.66 3 1 0.0889 3.2-0.0894 5.93-1 9-0.928-0.206-1.86-0.413-2.81-0.625-3.34-0.742-3.34-0.742-6.19 1.62-0.724 2.06-0.724 2.06-1 4-3.54-1.42-4.34-2.68-6-6-0.582-0.279-1.16-0.558-1.76-0.846-4.91-2.54-8.62-7.21-12.5-11.1-0.936-0.92-1.87-1.84-2.84-2.79-0.884-0.884-1.77-1.77-2.68-2.68-0.812-0.809-1.62-1.62-2.46-2.45-1.77-2.14-1.77-2.14-1.77-5.14 1.98-0.66 3.96-1.32 6-2-0.0619-0.763-0.124-1.53-0.188-2.31 0.188-2.69 0.188-2.69 1.19-4.62 2.54-1.35 3.45-0.929 6.19-0.25z" fill="#027BBA"/>
<path transform="translate(945,943)" d="m0 0c2.32 2.32 2.95 3.69 3.5 6.94-0.686 4.2-2.11 5.54-5.5 8.06-5.37 1.09-10.7 1.16-16.1 1.12-0.827-0.00193-1.65-0.00387-2.51-0.00586-6.83-0.0476-13.6-0.436-20.4-1.12 0.33-1.65 0.66-3.3 1-5h4c-0.371-0.722-0.742-1.44-1.12-2.19-1.06-3.42-0.478-4.69 1.12-7.81h6v2c1.55-0.278 1.55-0.278 3.12-0.562 3.88-0.438 3.88-0.438 7 0.188 3.71 0.483 4.75-0.691 7.88-2.62 4.26-1.08 8.34-1.85 12 1z" fill="#027CBB"/>
<path transform="translate(704,975)" d="m0 0c2.34 0.287 4.67 0.619 7 1 0.33 0.99 0.66 1.98 1 3 5.71 0.993 11.2 1.1 17 1v2h-3c0.66 2.64 1.32 5.28 2 8 0.99-0.33 1.98-0.66 3-1l5 5c0.33-0.66 0.66-1.32 1-2 1.03 2.79 1.05 3.87 0.0625 6.75-0.526 1.11-0.526 1.11-1.06 2.25-1.98-0.33-3.96-0.66-6-1-0.33 0.66-0.66 1.32-1 2l-1-2c-0.33 0.66-0.66 1.32-1 2-5.55-1.29-7.56-3.58-11-8-0.928-0.742-1.86-1.49-2.81-2.25l-2.19-1.75v-2c-0.639-0.309-1.28-0.619-1.94-0.938-2.06-1.06-2.06-1.06-3.06-2.06-2.55-0.202-5.1-0.319-7.65-0.426-2.35-0.574-2.35-0.574-3.66-2.62-0.226-0.646-0.451-1.29-0.684-1.96 2.02 0.326 4.04 0.651 6.05 0.977 0.963 0.0116 0.963 0.0116 1.95 0.0234 0.66-0.66 1.32-1.32 2-2-0.33-0.99-0.66-1.98-1-3l1-1z" fill="#027CBB"/>
<path transform="translate(883,946)" d="m0 0c0.66 0.99 1.32 1.98 2 3-0.438 2.06-0.438 2.06-1 4 0.33 0.66 0.66 1.32 1 2h-5c0.99 0.33 1.98 0.66 3 1 0.99 1.49 0.99 1.49 2 3 2.72 2.31 2.72 2.31 5.19 1.62 0.598-0.206 1.2-0.413 1.81-0.625-1.34 3.06-2.71 4.85-5.31 6.94-3.09 2.54-5.9 5.19-8.69 8.06v-3c-0.771 0.144-1.54 0.289-2.34 0.438-1 0.186-2.01 0.371-3.04 0.562-0.998 0.186-2 0.371-3.02 0.562-3.24 0.545-4.42 0.498-7.6-0.562 0.66-0.33 1.32-0.66 2-1-1.98-0.66-3.96-1.32-6-2 0.495-1.49 0.495-1.49 1-3h2c0.265-0.591 0.53-1.18 0.803-1.79 1.23-2.28 2.51-3.75 4.35-5.56 0.917-0.908 0.917-0.908 1.85-1.83 0.637-0.621 1.27-1.24 1.93-1.88 0.634-0.625 1.27-1.25 1.92-1.89 1.18-1.16 2.36-2.32 3.55-3.48 1.07-1.05 2.11-2.14 3.11-3.26 1.48-1.3 1.48-1.3 4.48-1.3z" fill="#027CBB"/>
<path transform="translate(768 1091)" d="m0 0c1.88 1.25 1.88 1.25 2.88 4.25-1.67 1.67-3.33 3.33-5 5h4l1-2c1.6 3.51 2.22 6.14 2 10h-2v5h-3c-0.33 0.99-0.66 1.98-1 3 0.99-0.33 1.98-0.66 3-1l1 2h3l2-4c0.417 1.77 0.808 3.54 1.19 5.31 0.22 0.986 0.441 1.97 0.668 2.99 0.145 2.7 0.145 2.7-1.07 4.49-3.08 2.09-6.16 2.61-9.79 2.21-3.09-1.39-5.11-3.19-7-6-0.807-4.28-0.571-8.41-0.312-12.8 0.0953-2.27 0.183-4.53 0.262-6.8 0.055-0.999 0.11-2 0.167-3.03 0.148-2.61 0.148-2.61-2.12-4.43 0.99-0.66 1.98-1.32 3-2 0.66-0.66 1.32-1.32 2-2 3-1 3-1 5.12-0.25z" fill="#027CBB"/>
<path transform="translate(658 1e3)" d="m0 0c1.23 0.153 1.23 0.153 2.48 0.309 0.94 0.126 0.94 0.126 1.9 0.254v2c0.33-0.33 0.66-0.66 1-1v-1h9c-0.33 0.99-0.66 1.98-1 3l2 2c-0.66 1.98-1.32 3.96-2 6h-3v-3h-3v3c2.64 0.66 5.28 1.32 8 2v2c-7.55 2.34-17.8 2.24-25-1-3.38-2.59-4.8-3.91-5.56-8.12 0.562-2.88 0.562-2.88 2.31-4.75 2.25-1.12 2.25-1.12 6.25-1.12 2.52-1.26 3.85-0.919 6.62-0.562z" fill="#027CBB"/>
<path transform="translate(651,981)" d="m0 0c5.25-0.384 8.35 0.813 13 3 1.49 0 2.97-0.322 4.44-0.562 3.56-0.438 3.56-0.438 5.56 0.562 0.33-0.99 0.66-1.98 1-3 0.33 1.32 0.66 2.64 1 4h3c0.33 1.98 0.66 3.96 1 6h2c0.33-0.66 0.66-1.32 1-2v2h6c0.495 1.49 0.495 1.49 1 3 0.99 0.66 1.98 1.32 3 2h-2v3l-1 1c-0.66 0.99-1.32 1.98-2 3l1 2c-3.15 0.701-5.73 1-9 1v2c-0.99-0.33-1.98-0.66-3-1-0.0915-0.723-0.183-1.45-0.277-2.19-1.87-7.28-8.75-13.5-14.8-17.8-3.02-1.61-5.56-1.91-8.96-2.05 0.33-0.66 0.66-1.32 1-2-0.99-0.66-1.98-1.32-3-2z" fill="#027CBB"/>
<path transform="translate(746,1106)" d="m0 0c1.28 3.88 1.08 7.73 0.984 11.8-0.0165 0.744-0.033 1.49-0.05 2.26-0.0374 1.57-0.0779 3.14-0.121 4.71-0.0629 2.41-0.104 4.81-0.145 7.22-0.039 1.52-0.0794 3.05-0.121 4.57-0.00953 0.721-0.0191 1.44-0.0289 2.18-0.0698 2.02-0.0698 2.02-0.518 5.31-3 2-3 2-5.19 1.62-0.598-0.206-1.2-0.412-1.81-0.625v-3h-2c0.186-0.908 0.371-1.82 0.562-2.75 0.773-5.38 0.368-10.9-0.562-16.2-0.66-0.66-1.32-1.32-2-2h2l-1-2c-0.99 0.33-1.98 0.66-3 1v-10h3c0.33-0.66 0.66-1.32 1-2 2.31-0.562 2.31-0.562 5-1 1.34-0.325 2.67-0.655 4-1z" fill="#007CC0"/>
<path transform="translate(950 966)" d="m0 0c3.66 1.31 5.3 2.82 7.62 5.94 0.716 2.83 0.702 5.16 0 8-2.06 3.06-2.06 3.06-5 5-2.34-0.253-4.68-0.6-7-1-2.64-0.211-5.29-0.399-7.94-0.562-0.684-0.0432-1.37-0.0864-2.07-0.131-1.66-0.105-3.33-0.206-4.99-0.307 2.45-6.49 11.8-17.1 19.4-16.9z" fill="#027CBB"/>
<path transform="translate(724,1030)" d="m0 0c0.33 1.32 0.66 2.64 1 4 2.48 0.495 2.48 0.495 5 1-0.125 1.69-0.125 1.69-1 4-1.42 1.19-2.84 2.37-4.31 3.5-2.58 2.28-4.43 5.02-6.39 7.83-1.61 2.08-2.7 2.58-5.29 2.98-6.04 0.335-6.04 0.335-8.71-1.44-2.43-2.68-3.28-4.66-3.61-8.25 0.103-0.866 0.206-1.73 0.312-2.62h2c0.33 0.66 0.66 1.32 1 2 0.99 0.33 1.98 0.66 3 1 0.155-0.928 0.155-0.928 0.312-1.88 0.688-2.12 0.688-2.12 3.69-4.12l1 2h3l-1-2c0.928-0.34 0.928-0.34 1.88-0.688 2.75-1.7 3.06-3.34 4.12-6.31 2-1 2-1 4-1z" fill="#027CBB"/>
<path transform="translate(705 1e3)" d="m0 0c2.02 0.0651 4.04 0.13 6.05 0.195 0.66 1.65 1.32 3.3 2 5h6c-0.33 0.99-0.66 1.98-1 3 2.48 0.495 2.48 0.495 5 1-0.33 0.99-0.66 1.98-1 3h-4v2c2.48 0.495 2.48 0.495 5 1l-2 1c-0.33 0.66-0.66 1.32-1 2v-2c-1.72 0.0309-1.72 0.0309-3.47 0.0625-12-0.0606-12-0.0606-16.2-2.8-2.76-3.14-4.31-5.01-4.31-9.26 1.18-0.433 1.18-0.433 2.38-0.875 2.6-1.11 3.83-3.05 6.57-3.32z" fill="#027CBB"/>
<path transform="translate(971,911)" d="m0 0h4c0.33 0.66 0.66 1.32 1 2 0.99-0.33 1.98-0.66 3-1 1.57 3.14 1.35 5.54 1 9-2.54 3.16-4.15 4.72-8 6-2.74 0.0705-5.45 0.0936-8.19 0.0625-0.75-0.00451-1.5-0.00902-2.27-0.0137-1.85-0.0118-3.69-0.0297-5.54-0.0488-0.66-1.32-1.32-2.64-2-4 0.66-0.33 1.32-0.66 2-1l1 1c0.0928-0.928 0.0928-0.928 0.188-1.88 0.812-2.12 0.812-2.12 3.38-3.38 0.804-0.247 1.61-0.495 2.44-0.75v-3c1.32 0.66 2.64 1.32 4 2v2h2c-0.33-1.65-0.66-3.3-1-5 1.21 0.0309 1.21 0.0309 2.44 0.0625 2.5 0.234 2.5 0.234 3.56-1.06-0.99-0.33-1.98-0.66-3-1z" fill="#027CBB"/>
<path transform="translate(800,1029)" d="m0 0h2v3c2.48 0.495 2.48 0.495 5 1-0.99 0.495-0.99 0.495-2 1-0.656 2.53-0.656 2.53-1 5h2v2c-4.3 2.41-8.93 3.77-13.8 4.31-0.722 0.227-1.44 0.454-2.19 0.688-1.37 2.48-1.37 2.48-2 5-3.24-0.35-4.62-0.562-6.81-3.06-0.392-0.639-0.784-1.28-1.19-1.94 3.21-3.81 6.41-7.55 10-11 1.94 0.812 1.94 0.812 4 2 0.33 0.99 0.66 1.98 1 3 2.04-0.664 2.04-0.664 4-2 0.699-2.19 0.699-2.19 0.75-4.62 0.0567-0.817 0.113-1.63 0.172-2.48 0.0258-0.626 0.0516-1.25 0.0781-1.9z" fill="#027CBB"/>
<path transform="translate(735,969)" d="m0 0c0.33 0.66 0.66 1.32 1 2-1.32 1.65-2.64 3.3-4 5h6v-2-5h5v2h3c0.33-0.66 0.66-1.32 1-2v3c1.32 0.33 2.64 0.66 4 1v2c-6.76 3.63-14.4 4.7-22 5-2.96-0.957-2.96-0.957-5-2v-5l-2 1c0.33-1.32 0.66-2.64 1-4 4.06-0.774 7.86-1.1 12-1z" fill="#027CBB"/>
<path transform="translate(954,1102)" d="m0 0h7v2h5c-0.33 0.99-0.66 1.98-1 3-0.66-0.33-1.32-0.66-2-1l1 2c1.99 0.398 3.99 0.724 6 1 2.31 0.438 2.31 0.438 4 1 0.33 0.66 0.66 1.32 1 2-9.57 0.33-19.1 0.66-29 1v-5h-2v-2c1.32-0.33 2.64-0.66 4-1 0.33 0.99 0.66 1.98 1 3 1.32-0.33 2.64-0.66 4-1 0.33-1.65 0.66-3.3 1-5z" fill="#027CBB"/>
<path transform="translate(482,890)" d="m0 0c1.32 0.66 2.64 1.32 4 2-0.0206 1.24-0.0412 2.48-0.0625 3.75-0.0104 2.94 0.267 5.41 1.06 8.25-0.33 0.33-0.66 0.66-1 1 0.0915 2.47 0.238 4.91 0.438 7.38 0.562 7.39 0.562 7.39 0.562 10.6-1.32-0.33-2.64-0.66-4-1-1.69-5.86-2.28-11-2.19-17.1 6.45e-4 -0.772 0.00129-1.54 0.00195-2.34 0.0328-4.28 0.344-8.32 1.19-12.5z" fill="#027CBB"/>
<path transform="translate(820,1115)" d="m0 0c1.94 0.625 1.94 0.625 4 2 0.75 3.12 0.75 3.12 1 6 2.31 0.33 4.62 0.66 7 1 0.33 1.65 0.66 3.3 1 5-1.08 0.124-1.08 0.124-2.19 0.25-4.22 1.12-6.78 3.72-9.81 6.75-0.133-1.05-0.266-2.1-0.402-3.18-0.178-1.38-0.357-2.76-0.535-4.14-0.087-0.69-0.174-1.38-0.264-2.09-0.391-3-0.84-5.72-1.8-8.6h2v-3z" fill="#037CBB"/>
<path transform="translate(821,960)" d="m0 0c1.88 0.25 1.88 0.25 4 1 1.91 2.97 2.23 5.26 2.12 8.75-0.018 0.799-0.0361 1.6-0.0547 2.42-0.0348 0.905-0.0348 0.905-0.0703 1.83-0.99 0.495-0.99 0.495-2 1-0.614 2.32-0.614 2.32-1 5-0.438 2.75-0.438 2.75-1 5-0.66 0.33-1.32 0.66-2 1-1.67-3.34-1.14-7.08-1.12-10.8-0.00387-0.799-0.00773-1.6-0.0117-2.42 0.00722-4.39 0.259-8.51 1.14-12.8z" fill="#0278B6"/>
<path transform="translate(712,1117)" d="m0 0c0.247 0.969 0.495 1.94 0.75 2.94 0.619 1.52 0.619 1.52 1.25 3.06 2.03 0.969 2.03 0.969 4 1-0.804 0.268-1.61 0.536-2.44 0.812-0.846 0.392-1.69 0.784-2.56 1.19-0.33 0.99-0.66 1.98-1 3-0.66-0.66-1.32-1.32-2-2-3.1 0.322-3.1 0.322-6 1l-2-4c6.82-7 6.82-7 10-7z" fill="#007CC0"/>
<path transform="translate(838,960)" d="m0 0h1c0.33 6.93 0.66 13.9 1 21h-2v-2h-2c-1.61-3.21-1.06-6.44-1-10-1.65 0.33-3.3 0.66-5 1-0.625-2.38-0.625-2.38-1-5l2-2c0.33 0.66 0.66 1.32 1 2-0.33 0.99-0.66 1.98-1 3h2v-5h4c0.33-0.99 0.66-1.98 1-3z" fill="#027CBB"/>
<path transform="translate(656,1041)" d="m0 0h2c0.103 0.619 0.206 1.24 0.312 1.88 0.563 2.49 0.563 2.49 3.69 4.12h3c1.69 1.5 1.69 1.5 3 3 0.66-0.33 1.32-0.66 2-1 0.66 0.66 1.32 1.32 2 2-3.7 2.47-6.7 2.78-11 2-2.78-1.36-3.88-2.57-6-5-0.438-3.25-0.438-3.25 0-6 0.33-0.33 0.66-0.66 1-1z" fill="#027CBB"/>
<path transform="translate(954,969)" d="m0 0c3 1 3 1 4 3 0.134 2.67 0.0432 5.32 0 8-0.804 0.124-1.61 0.247-2.44 0.375-0.846 0.206-1.69 0.413-2.56 0.625-0.33 0.66-0.66 1.32-1 2-0.33-1.65-0.66-3.3-1-5-0.99-0.33-1.98-0.66-3-1l3-6h3v-2z" fill="#007CC0"/>
<path transform="translate(945,697)" d="m0 0h7v2c0.99-0.33 1.98-0.66 3-1 1.56-0.0674 3.13-0.0851 4.69-0.0625 1.21 0.0135 1.21 0.0135 2.45 0.0273 0.922 0.0174 0.922 0.0174 1.86 0.0352v2h8v2c-1.48 0.0269-2.96 0.0463-4.44 0.0625-1.24 0.0174-1.24 0.0174-2.5 0.0352-2.07-0.0977-2.07-0.0977-3.07-1.1-1.41-0.156-2.83-0.251-4.25-0.316-0.854-0.0419-1.71-0.0838-2.59-0.127-0.898-0.0393-1.8-0.0786-2.72-0.119-0.902-0.0432-1.8-0.0864-2.73-0.131-2.23-0.106-4.47-0.208-6.71-0.307 0.66-0.33 1.32-0.66 2-1v-2z" fill="#026EA6"/>
<path transform="translate(880,961)" d="m0 0h4v3c0.33 0.99 0.66 1.98 1 3-2.55 2.35-3.71 2.98-7.25 3.19-0.908-0.0619-1.82-0.124-2.75-0.188 0.33-1.98 0.66-3.96 1-6 1.32-0.33 2.64-0.66 4-1v-2z" fill="#007CC0"/>
<path transform="translate(829,1055)" d="m0 0c2.11 3.42 2.09 6.04 2 10 0.33 0.33 0.66 0.66 1 1v-7h2c0.293 6.05 0.293 6.05 0 8-0.99 0.66-1.98 1.32-3 2-1.19 2.05-1.19 2.05-2 4-0.64-5.68-1.24-11.3-1-17 0.33-0.33 0.66-0.66 1-1z" fill="#007CC1"/>
<path transform="translate(626,928)" d="m0 0c1.52 0.0422 3.04 0.0412 4.56 0 2.94-0.0794 4.58 0.0489 7.44 1v3c0.99 0.33 1.98 0.66 3 1-0.619-0.144-1.24-0.289-1.88-0.438-2.67-0.48-5.24-0.767-7.94-1-4.57-0.425-8.77-1.34-13.2-2.56 3.22-1.96 4.45-1.93 8-1z" fill="#0272AC"/>
<path transform="translate(897,1062)" d="m0 0c2.6-0.0539 5.21-0.0936 7.81-0.125 0.738-0.0168 1.48-0.0335 2.24-0.0508 3.86-0.035 5.66-0.0182 8.95 2.18-10 1.32-10 1.32-14 0-0.33 0.66-0.66 1.32-1 2h-5c0.33-1.32 0.66-2.64 1-4z" fill="#007CBF"/>
<path transform="translate(926,1060)" d="m0 0h12c-2.98 2.94-4.54 3.95-8.77 4.39-1.35-0.0263-2.7-0.0736-4.04-0.141-0.693-0.018-1.39-0.0361-2.1-0.0547-1.7-0.0468-3.39-0.119-5.09-0.195v-1c1.13-0.124 2.27-0.247 3.44-0.375 1.18-0.206 2.35-0.412 3.56-0.625 0.33-0.66 0.66-1.32 1-2z" fill="#007CC0"/>
<path transform="translate(756 726)" d="m0 0c0.986 0.22 1.97 0.441 2.99 0.668 0.994 0.213 1.99 0.425 3.01 0.645 1.14 0.269 1.14 0.269 2.3 0.543-2.89 1.58-5.53 2.46-8.75 3.12-0.799 0.168-1.6 0.335-2.42 0.508-0.603 0.121-1.21 0.242-1.83 0.367-0.33-0.99-0.66-1.98-1-3 1.86-2.52 2.49-3.03 5.7-2.86z" fill="#007CC0"/>
<path transform="translate(939,1062)" d="m0 0c2.44 0.375 2.44 0.375 5 1 0.33 0.66 0.66 1.32 1 2h-2v2h2v2h-3v-2c-1.21-0.186-1.21-0.186-2.44-0.375-0.846-0.206-1.69-0.412-2.56-0.625-0.33-0.66-0.66-1.32-1-2h2c0.33-0.66 0.66-1.32 1-2z" fill="#007CC1"/>
<path transform="translate(712,1131)" d="m0 0h5c0.688 1.75 0.688 1.75 1 4-1.44 2.25-1.44 2.25-3 4-0.99-0.33-1.98-0.66-3-1v-7z" fill="#007CC1"/>
<path transform="translate(775,1094)" d="m0 0h2c0.33 5.94 0.66 11.9 1 18-0.33-0.99-0.66-1.98-1-3h-2c-0.33 0.66-0.66 1.32-1 2 0.33-5.61 0.66-11.2 1-17z" fill="#037CBB"/>
<path transform="translate(588,765)" d="m0 0c-1.5 3.89-3.7 5.47-7.12 7.75-1.37 0.92-1.37 0.92-2.76 1.86-1.05 0.688-1.05 0.688-2.12 1.39-0.66-0.33-1.32-0.66-2-1 1.95-1.67 3.91-3.34 5.88-5 0.556-0.477 1.11-0.954 1.68-1.45 4.21-3.55 4.21-3.55 6.44-3.55z" fill="#00090E"/>
<path transform="translate(775,1051)" d="m0 0c2 0.25 2 0.25 4 1 0.33 0.99 0.66 1.98 1 3 0.33-0.66 0.66-1.32 1-2 0.99 0.33 1.98 0.66 3 1-1.32 1.32-2.64 2.64-4 4-2.62-1.05-3.79-1.65-5.25-4.12-0.247-0.619-0.495-1.24-0.75-1.88 0.33-0.33 0.66-0.66 1-1z" fill="#027CBB"/>
<path transform="translate(798,1113)" d="m0 0c2.34 0.287 4.67 0.619 7 1v3h-2l-1 2c-1.94-0.812-1.94-0.812-4-2-0.33-0.99-0.66-1.98-1-3 0.33-0.33 0.66-0.66 1-1z" fill="#007CC1"/>
<path transform="translate(1020,858)" d="m0 0c0.66 0.33 1.32 0.66 2 1-1.45 1.34-2.91 2.67-4.38 4-0.812 0.742-1.62 1.49-2.46 2.25-2.16 1.75-2.16 1.75-4.16 1.75 1.52-4.55 5.17-6.5 9-9z" fill="#000609"/>
<path transform="translate(1009,867)" d="m0 0c0.66 0.33 1.32 0.66 2 1-0.723 0.507-0.723 0.507-1.46 1.02-0.632 0.446-1.26 0.892-1.91 1.35-0.626 0.441-1.25 0.882-1.9 1.34-1.85 1.32-1.85 1.32-3.73 3.29 0.125-1.75 0.125-1.75 1-4 3.06-2.25 3.06-2.25 6-4z" fill="#014D75"/>
<path transform="translate(778,1094)" d="m0 0h1v12h-1v-12z" fill="#000102"/>
<path transform="translate(892,701)" d="m0 0h8v1h-8v-1z" fill="#000102"/>
<path transform="translate(999,999)" d="m0 0 4 1z" fill="#007CC1"/>
<path transform="translate(657,999)" d="m0 0 4 1z" fill="#007CC1"/>
<path transform="translate(612,927)" d="m0 0 4 1z" fill="#000102"/>
<path transform="translate(590,762)" d="m0 0h2v2h-2v-2z" fill="#013E5E"/>
<path transform="translate(972,702)" d="m0 0 4 1z" fill="#037CBB"/>
<path transform="translate(667,935)" d="m0 0c3 1 3 1 3 1z" fill="#000102"/>
<path transform="translate(981,703)" d="m0 0c3 1 3 1 3 1z" fill="#000102"/>
<path transform="translate(847,676)" d="m0 0c3 1 3 1 3 1z" fill="#000102"/>
<path transform="translate(771,972)" d="m0 0 2 1z" fill="#000102"/>
<path transform="translate(722,935)" d="m0 0 2 1z" fill="#000102"/>
<path transform="translate(944,883)" d="m0 0 2 1z" fill="#000102"/>
<path transform="translate(588,764)" d="m0 0 2 1z" fill="#037CBB"/>
<path transform="translate(977,702)" d="m0 0 2 1z" fill="#000102"/>
<path transform="translate(960,701)" d="m0 0 2 1z" fill="#000102"/>
<path transform="translate(958,681)" d="m0 0 2 1z" fill="#000102"/>
<path transform="translate(823,511)" d="m0 0 2 1z" fill="#000102"/>
</svg>
